<svg width="211" height="161" viewBox="0 0 211 161" fill="none" xmlns="http://www.w3.org/2000/svg">
<g clip-path="url(#clip0_2328_29952)">
<path d="M47.9164 70.8373C47.6092 70.8373 47.3598 70.5876 47.3598 70.2799V69.4757H46.5566C46.2494 69.4757 46 69.226 46 68.9184C46 68.6107 46.2494 68.361 46.5566 68.361H47.3598V67.5573C47.3598 67.2497 47.6092 67 47.9164 67C48.2237 67 48.4731 67.2497 48.4731 67.5573V68.3616H49.2763C49.5835 68.3616 49.8329 68.6113 49.8329 68.9189C49.8329 69.2266 49.5835 69.4762 49.2763 69.4762H48.4731V70.2805C48.4731 70.5876 48.2243 70.8373 47.9164 70.8373Z" fill="#222222"/>
<path d="M80.9405 52.6475C80.9382 52.6475 80.9358 52.6475 80.934 52.6475C80.6098 52.644 80.3495 52.3775 80.3531 52.0528L80.3807 49.5818C80.3842 49.2571 80.6509 48.9954 80.9746 49.0001C81.2989 49.0036 81.5591 49.27 81.5556 49.5947L81.528 52.0658C81.5239 52.3887 81.2618 52.6475 80.9405 52.6475Z" fill="#222222"/>
<path d="M78.5648 53.0398C78.3222 53.0398 78.0954 52.8887 78.0108 52.6463L77.1925 50.3147C77.085 50.0083 77.246 49.6724 77.552 49.5648C77.8581 49.4571 78.1935 49.6183 78.301 49.9247L79.1193 52.2564C79.2268 52.5628 79.0659 52.8987 78.7598 53.0063C78.6952 53.0293 78.6294 53.0398 78.5648 53.0398Z" fill="#222222"/>
<path d="M76.4671 54.2215C76.2974 54.2215 76.1288 54.148 76.0125 54.0062L74.4469 52.0952C74.2413 51.844 74.2777 51.4735 74.5286 51.2676C74.7794 51.0617 75.1495 51.0982 75.3551 51.3493L76.9206 53.2604C77.1262 53.5116 77.0898 53.8821 76.839 54.088C76.7297 54.178 76.5981 54.2215 76.4671 54.2215Z" fill="#222222"/>
<path d="M74.898 56.0508C74.7963 56.0508 74.6929 56.0243 74.599 55.9685L72.4754 54.7091C72.1963 54.5438 72.1041 54.1827 72.2692 53.9033C72.4342 53.6239 72.7949 53.5316 73.074 53.6968L75.1976 54.9562C75.4766 55.1215 75.5688 55.4826 75.4037 55.762C75.2939 55.9479 75.0983 56.0508 74.898 56.0508Z" fill="#222222"/>
<path d="M74.0504 58.3066C74.0146 58.3066 73.9782 58.303 73.9411 58.2966L71.5156 57.8401C71.1966 57.7801 70.9869 57.4725 71.0468 57.1537C71.1068 56.8343 71.414 56.6243 71.7324 56.6843L74.1579 57.1407C74.4769 57.2007 74.6866 57.5084 74.6267 57.8272C74.5744 58.1095 74.3277 58.3066 74.0504 58.3066Z" fill="#222222"/>
<path d="M71.5866 61.1193C71.304 61.1193 71.0549 60.9146 71.0079 60.6264C70.9551 60.3059 71.1718 60.0029 71.492 59.9506L73.9275 59.5488C74.2477 59.4959 74.5502 59.713 74.6025 60.0335C74.6554 60.3541 74.4386 60.657 74.1184 60.7094L71.6829 61.1111C71.6506 61.1164 71.6183 61.1193 71.5866 61.1193Z" fill="#222222"/>
<path d="M72.6704 64.2033C72.4648 64.2033 72.2656 64.095 72.1581 63.9033C71.9989 63.6204 72.0994 63.2616 72.3819 63.1022L74.5331 61.8905C74.8157 61.7311 75.174 61.8316 75.3332 62.1146C75.4924 62.3975 75.392 62.7563 75.1094 62.9157L72.9582 64.1274C72.8666 64.1786 72.7679 64.2033 72.6704 64.2033Z" fill="#222222"/>
<path d="M74.7398 66.7308C74.6041 66.7308 74.4684 66.6843 74.3574 66.589C74.1113 66.3773 74.0831 66.0061 74.294 65.7597L75.9012 63.8845C76.1127 63.638 76.4833 63.6098 76.7295 63.8209C76.9756 64.0321 77.0038 64.4039 76.7929 64.6503L75.1857 66.5255C75.07 66.6608 74.9055 66.7308 74.7398 66.7308Z" fill="#222222"/>
<path d="M77.5489 68.3965C77.4802 68.3965 77.4103 68.3841 77.3421 68.3583C77.0384 68.2436 76.8851 67.9048 76.9996 67.6007L77.8697 65.2879C77.9842 64.9838 78.3226 64.8302 78.6263 64.9449C78.93 65.0596 79.0833 65.3984 78.9688 65.7025L78.0988 68.0153C78.0101 68.2512 77.7862 68.3965 77.5489 68.3965Z" fill="#222222"/>
<path d="M80.7577 69C80.7553 69 80.753 69 80.7512 69C80.4269 68.9964 80.1667 68.73 80.1702 68.4053L80.1978 65.9343C80.2013 65.6096 80.468 65.3502 80.7917 65.3526C81.116 65.3561 81.3763 65.6225 81.3727 65.9472L81.3451 68.4182C81.3416 68.7412 81.079 69 80.7577 69Z" fill="#222222"/>
<path d="M83.9784 68.4689C83.7357 68.4689 83.509 68.3177 83.4244 68.0754L82.6061 65.7437C82.4986 65.4373 82.6596 65.1014 82.9656 64.9938C83.2717 64.8861 83.6071 65.0473 83.7146 65.3538L84.5329 67.6854C84.6404 67.9918 84.4794 68.3277 84.1734 68.4353C84.1088 68.4577 84.043 68.4689 83.9784 68.4689Z" fill="#222222"/>
<path d="M86.8246 66.8654C86.6548 66.8654 86.4862 66.7919 86.3699 66.6501L84.8043 64.739C84.5987 64.4879 84.6352 64.1173 84.886 63.9114C85.1368 63.7056 85.5069 63.742 85.7125 63.9932L87.2781 65.9043C87.4837 66.1554 87.4472 66.526 87.1964 66.7319C87.0871 66.8218 86.9556 66.8654 86.8246 66.8654Z" fill="#222222"/>
<path d="M88.95 64.385C88.8483 64.385 88.745 64.3585 88.651 64.3026L86.5274 63.0433C86.2483 62.8774 86.1561 62.5169 86.3212 62.2375C86.4862 61.9581 86.8469 61.8657 87.126 62.031L89.2496 63.2903C89.5286 63.4556 89.6208 63.8168 89.4557 64.0962C89.3459 64.282 89.1503 64.385 88.95 64.385Z" fill="#222222"/>
<path d="M90.1022 61.3263C90.0663 61.3263 90.0299 61.3228 89.9929 61.3163L87.5674 60.8599C87.2484 60.7999 87.0387 60.4923 87.0986 60.1735C87.1585 59.8541 87.4657 59.6441 87.7841 59.7041L90.2097 60.1605C90.5286 60.2205 90.7383 60.5281 90.6784 60.847C90.6256 61.1293 90.3788 61.3263 90.1022 61.3263Z" fill="#222222"/>
<path d="M87.7018 58.4595C87.4192 58.4595 87.1702 58.2548 87.1232 57.9666C87.0703 57.646 87.2871 57.3431 87.6072 57.2907L90.0428 56.889C90.3623 56.8361 90.6649 57.0531 90.7177 57.3737C90.7706 57.6942 90.5538 57.9972 90.2337 58.0495L87.7981 58.4512C87.7658 58.4571 87.7335 58.4595 87.7018 58.4595Z" fill="#222222"/>
<path d="M86.9045 56.1855C86.6989 56.1855 86.4998 56.0773 86.3923 55.8855C86.2331 55.6026 86.3335 55.2438 86.6161 55.0844L88.7673 53.8727C89.0498 53.7133 89.4082 53.8139 89.5674 54.0968C89.7266 54.3797 89.6261 54.7385 89.3436 54.8979L87.1924 56.1096C87.1013 56.1608 87.002 56.1855 86.9045 56.1855Z" fill="#222222"/>
<path d="M85.3773 54.3215C85.2416 54.3215 85.1059 54.275 84.9949 54.1797C84.7487 53.968 84.7205 53.5968 84.9314 53.3504L86.5386 51.4752C86.7501 51.2287 87.1208 51.2005 87.3669 51.4116C87.6131 51.6234 87.6413 51.9946 87.4304 52.241L85.8231 54.1162C85.7068 54.2515 85.5424 54.3215 85.3773 54.3215Z" fill="#222222"/>
<path d="M83.3057 53.0927C83.237 53.0927 83.1671 53.0804 83.099 53.0551C82.7953 52.9404 82.6419 52.6016 82.7565 52.2975L83.6265 49.9847C83.7411 49.6806 84.08 49.5271 84.3831 49.6418C84.6868 49.7565 84.8402 50.0953 84.7256 50.3994L83.8556 52.7122C83.7669 52.9475 83.5431 53.0927 83.3057 53.0927Z" fill="#222222"/>
<path d="M80.8628 63.3721C78.4554 63.3721 76.4963 61.411 76.4963 59C76.4963 56.5896 78.4549 54.6279 80.8628 54.6279C83.2701 54.6279 85.2292 56.589 85.2292 59C85.2286 61.411 83.2701 63.3721 80.8628 63.3721ZM80.8628 55.8043C79.1028 55.8043 77.6712 57.2378 77.6712 59C77.6712 60.7623 79.1028 62.1957 80.8628 62.1957C82.6227 62.1957 84.0543 60.7623 84.0543 59C84.0538 57.2378 82.6222 55.8043 80.8628 55.8043Z" fill="#222222"/>
<path d="M15.57 108.735C15.4275 108.735 15.285 108.68 15.1764 108.571C15.0679 108.463 15.0134 108.32 15.0134 108.177C15.0134 108.035 15.0679 107.892 15.1764 107.783C15.5561 107.404 15.7637 106.902 15.7609 106.37C15.7581 105.839 15.5455 105.335 15.1631 104.952C15.0545 104.843 15 104.7 15 104.557C15 104.415 15.054 104.272 15.1631 104.163C15.3807 103.946 15.7331 103.946 15.9501 104.163C16.3314 104.545 16.8363 104.755 17.3718 104.755C17.9067 104.755 18.411 104.545 18.7911 104.164C19.0082 103.946 19.3605 103.946 19.5782 104.163C19.6867 104.272 19.7413 104.415 19.7413 104.557C19.7413 104.7 19.6873 104.843 19.5787 104.952C18.7889 105.743 18.7767 106.975 19.5476 107.765C19.6595 107.867 19.7296 108.015 19.7296 108.178C19.7296 108.486 19.4802 108.735 19.173 108.735C19.1724 108.735 19.1724 108.735 19.1719 108.735C19.0294 108.735 18.8869 108.681 18.7783 108.572C18.3976 108.191 17.8978 107.981 17.3718 107.981C16.8452 107.981 16.3453 108.191 15.9641 108.572C15.855 108.68 15.7125 108.735 15.57 108.735ZM16.824 105.822C16.8563 106 16.873 106.181 16.8741 106.365C16.8752 106.551 16.8597 106.734 16.8285 106.914C17.1836 106.85 17.5582 106.85 17.9133 106.914C17.8822 106.734 17.8671 106.551 17.8677 106.365C17.8688 106.182 17.8855 106 17.9178 105.823C17.5604 105.885 17.1819 105.885 16.824 105.822Z" fill="#222222"/>
<path d="M22.5627 116.772C22.2555 116.772 22.0061 116.522 22.0061 116.214C22.0061 114.935 21.0048 113.932 19.7268 113.932C19.4195 113.932 19.1702 113.682 19.1702 113.375C19.1702 113.067 19.4195 112.817 19.7268 112.817C20.3418 112.817 20.9157 112.579 21.3432 112.146C21.7707 111.713 22.0061 111.134 22.0061 110.513C22.0061 110.206 22.2549 109.956 22.5627 109.956C22.87 109.956 23.1194 110.205 23.1194 110.513C23.1199 111.783 24.1508 112.817 25.4176 112.817C25.4182 112.817 25.4188 112.817 25.4193 112.817C25.4193 112.817 25.4193 112.817 25.4199 112.817C25.7271 112.817 25.9765 113.066 25.9765 113.373C25.9765 113.678 25.7321 113.926 25.4282 113.931C25.4282 113.931 25.4277 113.931 25.4271 113.931C25.4249 113.931 25.4221 113.931 25.4199 113.931C24.1296 113.932 23.1194 114.935 23.1194 116.214C23.1194 116.522 22.87 116.772 22.5627 116.772ZM21.5992 113.372C21.7896 113.497 21.9677 113.642 22.1319 113.806C22.2961 113.971 22.4409 114.149 22.5655 114.34C22.6924 114.149 22.8394 113.969 23.0058 113.805C23.1717 113.64 23.3526 113.494 23.5446 113.37C23.1567 113.114 22.8244 112.78 22.5683 112.393C22.4436 112.585 22.2984 112.765 22.1342 112.931C21.97 113.098 21.7907 113.245 21.5992 113.372Z" fill="#222222"/>
<path d="M45.5992 99.3288C45.2919 99.3288 45.0425 99.0791 45.0425 98.7715C45.0425 98.1863 44.5844 97.7282 44 97.7276L44.0006 96.6129C44.2816 96.6129 44.5438 96.5042 44.7392 96.307C44.9351 96.1085 45.0431 95.8427 45.0425 95.5573C45.0425 95.2497 45.2914 95 45.5992 95C45.9064 95 46.1558 95.2497 46.1558 95.5573C46.1558 96.1398 46.6284 96.6129 47.2089 96.6129C47.2089 96.6129 47.2095 96.6129 47.21 96.6129C47.5173 96.6129 47.7666 96.8621 47.7666 97.1697C47.7666 97.4751 47.5212 97.7237 47.2167 97.7276C47.2156 97.7276 47.215 97.7276 47.2139 97.7276C47.2128 97.7276 47.2117 97.7276 47.2106 97.7276C46.6194 97.7282 46.1558 98.1868 46.1558 98.7715C46.1558 99.0797 45.907 99.3288 45.5992 99.3288ZM45.4539 97.1652C45.5079 97.2143 45.5591 97.2656 45.6081 97.3202C45.6565 97.2672 45.7071 97.2171 45.76 97.1692C45.7055 97.1201 45.6532 97.0677 45.6036 97.0131C45.5797 97.0398 45.5552 97.0655 45.5301 97.0911C45.5057 97.1162 45.48 97.1413 45.4539 97.1652Z" fill="#222222"/>
<path d="M197.44 95.921C197.133 95.921 196.884 95.6713 196.884 95.3636V94.5594H196.08C195.773 94.5594 195.524 94.3097 195.524 94.002C195.524 93.6944 195.773 93.4447 196.08 93.4447H196.884V92.6405C196.884 92.3328 197.133 92.0831 197.44 92.0831C197.747 92.0831 197.997 92.3328 197.997 92.6405V93.4447H198.8C199.107 93.4447 199.357 93.6944 199.357 94.002C199.357 94.3097 199.107 94.5594 198.8 94.5594H197.997V95.3636C197.997 95.6713 197.748 95.921 197.44 95.921Z" fill="#222222"/>
<path d="M140.916 73.8378C140.609 73.8378 140.36 73.5881 140.36 73.2805V72.4762H139.557C139.249 72.4762 139 72.2266 139 71.9189C139 71.6113 139.249 71.3616 139.557 71.3616H140.36V70.5573C140.36 70.2497 140.609 70 140.916 70C141.224 70 141.473 70.2497 141.473 70.5573V71.3616H142.276C142.583 71.3616 142.833 71.6113 142.833 71.9189C142.833 72.2266 142.583 72.4762 142.276 72.4762H141.473V73.2805C141.473 73.5881 141.224 73.8378 140.916 73.8378Z" fill="#222222"/>
<path d="M187.024 101.758C186.881 101.758 186.739 101.703 186.63 101.595C186.249 101.213 185.749 101.003 185.222 101.003C184.696 101.003 184.197 101.213 183.815 101.595C183.598 101.812 183.245 101.812 183.028 101.595C182.92 101.486 182.865 101.343 182.865 101.201C182.865 101.058 182.92 100.915 183.028 100.807C183.817 100.017 183.811 98.7728 183.015 97.9747C182.906 97.8661 182.852 97.7234 182.852 97.5807C182.852 97.438 182.907 97.2953 183.015 97.1867C183.233 96.9693 183.585 96.9693 183.802 97.1872C184.183 97.5684 184.687 97.7786 185.222 97.7786C185.757 97.7786 186.262 97.5684 186.643 97.1867C186.861 96.9687 187.213 96.9693 187.43 97.1867C187.539 97.2953 187.593 97.438 187.593 97.5807C187.593 97.7234 187.539 97.8661 187.43 97.9747C187.047 98.3576 186.835 98.8615 186.832 99.3937C186.829 99.9249 187.037 100.427 187.417 100.807C187.525 100.915 187.58 101.058 187.58 101.201C187.58 101.343 187.526 101.486 187.417 101.595C187.309 101.704 187.166 101.758 187.024 101.758ZM185.223 99.8886C185.407 99.8886 185.588 99.9048 185.766 99.9366C185.735 99.7571 185.719 99.5737 185.72 99.3876C185.721 99.2037 185.738 99.0225 185.77 98.8447C185.591 98.8765 185.408 98.8927 185.223 98.8927C185.038 98.8927 184.855 98.8765 184.676 98.8447C184.709 99.0225 184.725 99.2037 184.726 99.3876C184.728 99.5732 184.712 99.7565 184.681 99.936C184.858 99.9048 185.039 99.8886 185.223 99.8886Z" fill="#222222"/>
<path d="M185.413 117.612C185.106 117.612 184.857 117.362 184.857 117.055C184.857 115.775 183.846 114.773 182.556 114.772C182.249 114.772 181.999 114.522 182 114.214C182 113.906 182.249 113.657 182.557 113.657C182.557 113.657 182.557 113.657 182.557 113.657C183.826 113.657 184.857 112.624 184.857 111.354C184.857 111.046 185.106 110.796 185.414 110.796C185.721 110.796 185.97 111.046 185.97 111.354C185.97 111.974 186.206 112.554 186.633 112.987C187.061 113.419 187.634 113.658 188.249 113.658C188.249 113.658 188.249 113.658 188.25 113.658C188.557 113.658 188.806 113.907 188.806 114.215C188.806 114.521 188.56 114.77 188.255 114.772C188.254 114.772 188.251 114.772 188.25 114.772C186.972 114.773 185.97 115.775 185.97 117.055C185.97 117.362 185.72 117.612 185.413 117.612ZM184.431 114.209C184.623 114.335 184.803 114.48 184.97 114.645C185.136 114.81 185.283 114.989 185.41 115.18C185.535 114.989 185.68 114.811 185.843 114.647C186.008 114.482 186.186 114.338 186.376 114.212C186.185 114.085 186.006 113.937 185.841 113.771C185.676 113.605 185.532 113.424 185.406 113.232C185.151 113.62 184.819 113.954 184.431 114.209Z" fill="#222222"/>
<path d="M155.167 82.3288C154.86 82.3288 154.611 82.0791 154.611 81.7715C154.611 81.1863 154.148 80.7282 153.556 80.7276C153.249 80.7276 152.999 80.4779 153 80.1697C153 79.8621 153.249 79.6129 153.557 79.6129C153.557 79.6129 153.557 79.6129 153.557 79.6129C154.138 79.6129 154.611 79.1392 154.611 78.5573C154.611 78.2497 154.86 78 155.167 78C155.475 78 155.724 78.2497 155.724 78.5573C155.724 78.8427 155.832 79.1085 156.027 79.307C156.222 79.5042 156.484 79.6129 156.766 79.6129C156.766 79.6129 156.766 79.6129 156.766 79.6129C157.073 79.6129 157.323 79.8621 157.323 80.1703C157.323 80.474 157.081 80.7209 156.779 80.7276C156.778 80.7276 156.777 80.7276 156.777 80.7276C156.776 80.7276 156.774 80.7276 156.773 80.7276C156.773 80.7276 156.772 80.7276 156.772 80.7276C156.77 80.7276 156.768 80.7276 156.766 80.7276C156.182 80.7276 155.724 81.1863 155.724 81.7715C155.724 82.0791 155.475 82.3288 155.167 82.3288ZM155.007 80.1692C155.06 80.2171 155.111 80.2672 155.159 80.3196C155.208 80.2656 155.259 80.2137 155.313 80.1652C155.287 80.1413 155.262 80.1168 155.237 80.0911C155.211 80.0655 155.187 80.0398 155.163 80.0131C155.113 80.0677 155.062 80.1195 155.007 80.1692Z" fill="#222222"/>
<path d="M44.674 160.854C44.2588 160.854 43.9226 160.518 43.9226 160.102V124.972C43.9226 124.556 44.2588 124.219 44.674 124.219C45.0893 124.219 45.4255 124.556 45.4255 124.972V160.102C45.4255 160.518 45.0893 160.854 44.674 160.854Z" fill="#222222"/>
<path d="M54.7411 161H25.7859C25.3706 161 25.0344 160.663 25.0344 160.248C25.0344 160.223 25.0355 160.199 25.0378 160.175C25.0355 160.151 25.0344 160.127 25.0344 160.103V135.892C25.0344 135.623 25.1775 135.374 25.4101 135.24L44.2984 124.321C44.5305 124.186 44.8166 124.186 45.0487 124.32L55.1152 130.119C55.3484 130.253 55.492 130.502 55.492 130.771V160.248C55.4926 160.663 55.1558 161 54.7411 161ZM26.5373 159.495H53.9897V131.206L44.6752 125.84L26.5373 136.325V159.495Z" fill="#222222"/>
<path d="M54.4372 137.778C54.3097 137.778 54.1806 137.746 54.062 137.677L47.9938 134.169C47.6342 133.961 47.5112 133.502 47.7188 133.141C47.9264 132.781 48.3857 132.658 48.7452 132.866L54.8135 136.374C55.1731 136.582 55.2961 137.042 55.0885 137.402C54.9493 137.643 54.6966 137.778 54.4372 137.778Z" fill="#222222"/>
<path d="M54.74 144.431C54.6125 144.431 54.4834 144.399 54.3649 144.331L47.9938 140.647C47.6342 140.439 47.5112 139.979 47.7188 139.619C47.9264 139.259 48.3857 139.136 48.7452 139.344L55.1163 143.028C55.4759 143.235 55.5989 143.695 55.3913 144.055C55.2527 144.297 55 144.431 54.74 144.431Z" fill="#222222"/>
<path d="M54.2524 150.627C54.1249 150.627 53.9958 150.595 53.8772 150.526L47.9938 147.125C47.6342 146.917 47.5112 146.457 47.7188 146.097C47.9264 145.737 48.3857 145.614 48.7452 145.822L54.6287 149.223C54.9883 149.431 55.1113 149.891 54.9036 150.251C54.7645 150.492 54.5123 150.627 54.2524 150.627Z" fill="#222222"/>
<path d="M54.2953 157.131C54.1678 157.131 54.0387 157.099 53.9201 157.03L47.9938 153.604C47.6342 153.396 47.5112 152.936 47.7188 152.576C47.9264 152.216 48.3857 152.093 48.7452 152.301L54.6715 155.727C55.0311 155.935 55.1541 156.395 54.9465 156.755C54.8079 156.996 54.5552 157.131 54.2953 157.131Z" fill="#222222"/>
<path d="M31.7712 160.807C31.356 160.807 31.0198 160.47 31.0198 160.055V139.089C31.0198 138.673 31.356 138.336 31.7712 138.336C32.1864 138.336 32.5226 138.673 32.5226 139.089V160.055C32.5226 160.47 32.1859 160.807 31.7712 160.807Z" fill="#222222"/>
<path d="M38.3637 160.807C37.9485 160.807 37.6123 160.471 37.6123 160.055V134.807C37.6123 134.391 37.9485 134.054 38.3637 134.054C38.779 134.054 39.1152 134.391 39.1152 134.807V160.055C39.1152 160.47 38.779 160.807 38.3637 160.807Z" fill="#222222"/>
<path d="M131.146 161H84.0269C83.5093 161 83.0896 160.545 83.0896 159.983V83.0643C83.0896 82.701 83.2683 82.3654 83.5583 82.1838L107.118 67.4311C107.408 67.2494 107.765 67.2494 108.055 67.4311L131.614 82.1838C131.904 82.3654 132.083 82.701 132.083 83.0643V159.983C132.084 160.545 131.664 161 131.146 161ZM84.9643 158.967H130.209V83.6512L107.587 69.4854L84.9648 83.6512L84.9643 158.967Z" fill="#222222"/>
<path d="M107.751 161C107.336 161 107 160.55 107 159.993V69.2307C107 68.6751 107.336 68.2242 107.751 68.2242C108.167 68.2242 108.503 68.6745 108.503 69.2307V159.993C108.503 160.549 108.167 161 107.751 161Z" fill="#222222"/>
<path d="M83.9105 121.875C83.7831 121.875 83.6539 121.843 83.5354 121.774L77.5946 118.34C77.2351 118.132 77.112 117.672 77.3197 117.312C77.5273 116.952 77.9865 116.829 78.3461 117.037L84.2868 120.471C84.6464 120.679 84.7694 121.139 84.5618 121.499C84.4226 121.74 84.1699 121.875 83.9105 121.875Z" fill="#222222"/>
<path d="M83.9106 128.353C83.7831 128.353 83.654 128.321 83.5354 128.253L77.5946 124.818C77.2351 124.61 77.112 124.151 77.3197 123.791C77.5273 123.431 77.9865 123.307 78.3461 123.515L84.2868 126.95C84.6464 127.157 84.7694 127.617 84.5618 127.977C84.4226 128.219 84.1699 128.353 83.9106 128.353Z" fill="#222222"/>
<path d="M83.9106 134.832C83.7831 134.832 83.654 134.8 83.5354 134.731L77.5946 131.297C77.2351 131.089 77.112 130.629 77.3197 130.269C77.5273 129.909 77.9865 129.786 78.3461 129.994L84.2868 133.428C84.6464 133.636 84.7694 134.096 84.5618 134.456C84.4226 134.697 84.1699 134.832 83.9106 134.832Z" fill="#222222"/>
<path d="M83.9106 141.31C83.7831 141.31 83.654 141.278 83.5354 141.209L77.5946 137.775C77.2351 137.567 77.112 137.107 77.3197 136.747C77.5273 136.387 77.9865 136.264 78.3461 136.472L84.2868 139.906C84.6464 140.114 84.7694 140.574 84.5618 140.934C84.4226 141.175 84.1699 141.31 83.9106 141.31Z" fill="#222222"/>
<path d="M83.9106 147.788C83.7831 147.788 83.654 147.756 83.5354 147.687L77.5946 144.253C77.2351 144.045 77.112 143.585 77.3197 143.225C77.5273 142.865 77.9865 142.742 78.3461 142.95L84.2868 146.384C84.6464 146.592 84.7694 147.052 84.5618 147.412C84.4226 147.653 84.1699 147.788 83.9106 147.788Z" fill="#222222"/>
<path d="M83.9106 154.267C83.7831 154.267 83.654 154.234 83.5354 154.166L77.5946 150.732C77.2351 150.524 77.112 150.064 77.3197 149.704C77.5273 149.344 77.9865 149.221 78.3461 149.429L84.2868 152.863C84.6464 153.071 84.7694 153.531 84.5618 153.891C84.4226 154.132 84.1699 154.267 83.9106 154.267Z" fill="#222222"/>
<path d="M124.785 108.08C124.657 108.08 124.528 108.048 124.41 107.979L113.32 101.569C112.961 101.361 112.838 100.901 113.045 100.541C113.253 100.181 113.712 100.058 114.072 100.266L125.161 106.676C125.521 106.884 125.644 107.344 125.436 107.704C125.297 107.945 125.044 108.08 124.785 108.08Z" fill="#222222"/>
<path d="M124.785 114.559C124.657 114.559 124.528 114.527 124.41 114.458L113.32 108.047C112.961 107.84 112.838 107.38 113.045 107.02C113.253 106.66 113.712 106.537 114.072 106.744L125.161 113.155C125.521 113.363 125.644 113.823 125.436 114.183C125.297 114.424 125.044 114.559 124.785 114.559Z" fill="#222222"/>
<path d="M124.785 121.037C124.657 121.037 124.528 121.005 124.41 120.936L113.32 114.526C112.961 114.318 112.838 113.858 113.045 113.498C113.253 113.138 113.713 113.015 114.072 113.223L125.161 119.633C125.521 119.841 125.644 120.301 125.436 120.661C125.297 120.902 125.044 121.037 124.785 121.037Z" fill="#222222"/>
<path d="M124.785 127.515C124.657 127.515 124.528 127.483 124.41 127.414L113.32 121.004C112.961 120.796 112.838 120.336 113.045 119.976C113.253 119.616 113.713 119.493 114.072 119.701L125.161 126.111C125.521 126.319 125.644 126.779 125.436 127.139C125.297 127.38 125.044 127.515 124.785 127.515Z" fill="#222222"/>
<path d="M124.785 133.994C124.657 133.994 124.528 133.961 124.41 133.893L113.32 127.482C112.961 127.274 112.838 126.815 113.045 126.455C113.253 126.095 113.712 125.971 114.072 126.179L125.161 132.59C125.521 132.798 125.644 133.257 125.436 133.617C125.297 133.859 125.044 133.994 124.785 133.994Z" fill="#222222"/>
<path d="M124.785 140.472C124.657 140.472 124.528 140.44 124.41 140.371L113.32 133.961C112.961 133.753 112.838 133.293 113.045 132.933C113.253 132.573 113.712 132.45 114.072 132.658L125.161 139.068C125.521 139.276 125.644 139.736 125.436 140.096C125.297 140.337 125.044 140.472 124.785 140.472Z" fill="#222222"/>
<path d="M124.785 146.951C124.657 146.951 124.528 146.918 124.41 146.85L113.32 140.439C112.961 140.231 112.838 139.772 113.045 139.412C113.253 139.052 113.712 138.928 114.072 139.136L125.161 145.547C125.521 145.755 125.644 146.214 125.436 146.574C125.297 146.816 125.044 146.951 124.785 146.951Z" fill="#222222"/>
<path d="M124.785 153.429C124.657 153.429 124.528 153.397 124.41 153.328L113.32 146.918C112.961 146.71 112.838 146.25 113.045 145.89C113.253 145.53 113.712 145.407 114.072 145.615L125.161 152.025C125.521 152.233 125.644 152.693 125.436 153.053C125.297 153.294 125.044 153.429 124.785 153.429Z" fill="#222222"/>
<path d="M124.785 88.5563C124.657 88.5563 124.528 88.524 124.41 88.4554L113.32 82.045C112.961 81.8371 112.838 81.3773 113.045 81.0172C113.253 80.6572 113.712 80.534 114.072 80.7419L125.161 87.1524C125.521 87.3603 125.644 87.8201 125.436 88.1801C125.297 88.4214 125.044 88.5563 124.785 88.5563Z" fill="#222222"/>
<path d="M124.785 95.0348C124.657 95.0348 124.528 95.0024 124.41 94.9339L113.32 88.5234C112.961 88.3155 112.838 87.8557 113.045 87.4957C113.253 87.1356 113.712 87.0125 114.072 87.2204L125.161 93.6308C125.521 93.8387 125.644 94.2985 125.436 94.6586C125.297 94.8999 125.044 95.0348 124.785 95.0348Z" fill="#222222"/>
<path d="M124.785 101.513C124.657 101.513 124.528 101.481 124.41 101.412L113.32 95.0019C112.961 94.794 112.838 94.3342 113.045 93.9742C113.253 93.6142 113.712 93.491 114.072 93.6989L125.161 100.109C125.521 100.317 125.644 100.777 125.436 101.137C125.297 101.378 125.044 101.513 124.785 101.513Z" fill="#222222"/>
<path d="M83.7392 161H54.7839C54.3687 161 54.0325 160.664 54.0325 160.248C54.0325 160.235 54.033 160.222 54.0336 160.21C54.033 160.197 54.0325 160.185 54.0325 160.172V120.063C54.0325 119.794 54.1755 119.545 54.4082 119.411L73.2965 108.492C73.5286 108.358 73.8147 108.358 74.0468 108.491L84.1132 114.29C84.3465 114.425 84.4901 114.673 84.4901 114.942V160.248C84.4906 160.663 84.1539 161 83.7392 161ZM55.5353 159.495H82.9878V115.377L73.6733 110.011L55.5359 120.496V159.495H55.5353Z" fill="#222222"/>
<path d="M73.6728 160.977C73.2576 160.977 72.9214 160.641 72.9214 160.225V109.143C72.9214 108.727 73.2576 108.39 73.6728 108.39C74.088 108.39 74.4242 108.727 74.4242 109.143V160.225C74.4242 160.641 74.0875 160.977 73.6728 160.977Z" fill="#222222"/>
<path d="M83.7392 161H54.7839C54.3687 161 54.0325 160.664 54.0325 160.248C54.0325 160.235 54.033 160.222 54.0336 160.21C54.033 160.197 54.0325 160.185 54.0325 160.172V120.063C54.0325 119.794 54.1755 119.545 54.4082 119.411L73.2965 108.492C73.5286 108.358 73.8147 108.358 74.0468 108.491L84.1132 114.29C84.3465 114.425 84.4901 114.673 84.4901 114.942V160.248C84.4906 160.663 84.1539 161 83.7392 161ZM55.5353 159.495H82.9878V115.377L73.6733 110.011L55.5359 120.496V159.495H55.5353Z" fill="#222222"/>
<path d="M93.1716 161C92.7564 161 92.4202 160.532 92.4202 159.955V84.8177C92.4202 84.2409 92.7564 83.7733 93.1716 83.7733C93.5868 83.7733 93.923 84.2409 93.923 84.8177V159.955C93.923 160.532 93.5868 161 93.1716 161Z" fill="#222222"/>
<path d="M99.7649 161C99.3496 161 99.0134 160.532 99.0134 159.956V78.8732C99.0134 78.2963 99.3496 77.8287 99.7649 77.8287C100.18 77.8287 100.516 78.2963 100.516 78.8732V159.955C100.516 160.532 100.18 161 99.7649 161Z" fill="#222222"/>
<path d="M61.0224 160.858C60.6072 160.858 60.271 160.521 60.271 160.105V123.118C60.271 122.703 60.6072 122.366 61.0224 122.366C61.4377 122.366 61.7739 122.703 61.7739 123.118V160.105C61.7739 160.521 61.4371 160.858 61.0224 160.858Z" fill="#222222"/>
<path d="M67.615 160.858C67.1997 160.858 66.8635 160.521 66.8635 160.105V118.836C66.8635 118.421 67.1997 118.084 67.615 118.084C68.0302 118.084 68.3664 118.421 68.3664 118.836V160.105C68.3664 160.521 68.0302 160.858 67.615 160.858Z" fill="#222222"/>
<path d="M156.81 161H14.9624C14.5471 161 14.2109 160.663 14.2109 160.248C14.2109 159.832 14.5471 159.495 14.9624 159.495H156.809C157.225 159.495 157.561 159.832 157.561 160.248C157.561 160.663 157.225 161 156.81 161Z" fill="#222222"/>
<path d="M199.668 161H125.561C125.146 161 124.81 160.663 124.81 160.248C124.81 159.832 125.146 159.495 125.561 159.495H199.668C200.083 159.495 200.419 159.832 200.419 160.248C200.419 160.663 200.083 161 199.668 161Z" fill="#222222"/>
<path d="M170.294 160.779C169.879 160.779 169.543 160.442 169.543 160.026V124.896C169.543 124.48 169.879 124.143 170.294 124.143C170.71 124.143 171.046 124.48 171.046 124.896V160.026C171.046 160.442 170.71 160.779 170.294 160.779Z" fill="#222222"/>
<path d="M131.357 161C131.159 161 130.968 160.921 130.827 160.781C130.686 160.64 130.606 160.448 130.606 160.248V114.942C130.606 114.673 130.75 114.424 130.983 114.29L141.049 108.491C141.281 108.357 141.567 108.357 141.8 108.491L160.688 119.411C160.92 119.545 161.064 119.793 161.064 120.062V160.171C161.064 160.586 160.728 160.923 160.314 160.924L131.359 161C131.359 161 131.358 161 131.357 161ZM132.109 115.377V159.493L159.561 159.421V120.496L141.424 110.011L132.109 115.377Z" fill="#222222"/>
<path d="M141.424 160.977C141.009 160.977 140.672 160.641 140.672 160.225V109.143C140.672 108.727 141.009 108.39 141.424 108.39C141.839 108.39 142.175 108.727 142.175 109.143V160.225C142.175 160.641 141.839 160.977 141.424 160.977Z" fill="#222222"/>
<path d="M156.547 124.852C156.419 124.852 156.29 124.819 156.171 124.751L145.082 118.34C144.723 118.132 144.6 117.673 144.807 117.313C145.015 116.953 145.475 116.829 145.834 117.037L156.923 123.448C157.282 123.656 157.405 124.115 157.198 124.476C157.059 124.717 156.806 124.852 156.547 124.852Z" fill="#222222"/>
<path d="M156.547 131.33C156.419 131.33 156.29 131.297 156.171 131.229L145.082 124.818C144.723 124.61 144.6 124.151 144.807 123.791C145.015 123.431 145.474 123.307 145.834 123.515L156.923 129.926C157.282 130.134 157.405 130.593 157.198 130.953C157.059 131.195 156.806 131.33 156.547 131.33Z" fill="#222222"/>
<path d="M156.547 137.808C156.419 137.808 156.29 137.776 156.171 137.707L145.082 131.297C144.723 131.089 144.6 130.629 144.807 130.269C145.015 129.909 145.475 129.786 145.834 129.994L156.923 136.404C157.282 136.612 157.405 137.072 157.198 137.432C157.059 137.673 156.806 137.808 156.547 137.808Z" fill="#222222"/>
<path d="M156.547 144.287C156.419 144.287 156.29 144.254 156.171 144.186L145.082 137.775C144.723 137.567 144.6 137.108 144.807 136.748C145.015 136.387 145.475 136.264 145.834 136.472L156.923 142.883C157.282 143.091 157.405 143.55 157.198 143.91C157.059 144.152 156.806 144.287 156.547 144.287Z" fill="#222222"/>
<path d="M156.547 150.765C156.419 150.765 156.29 150.733 156.171 150.664L145.082 144.254C144.723 144.046 144.6 143.586 144.807 143.226C145.015 142.866 145.475 142.743 145.834 142.951L156.923 149.361C157.282 149.569 157.405 150.029 157.198 150.389C157.059 150.63 156.806 150.765 156.547 150.765Z" fill="#222222"/>
<path d="M156.547 157.243C156.419 157.243 156.29 157.211 156.171 157.142L145.082 150.732C144.723 150.524 144.6 150.064 144.807 149.704C145.015 149.344 145.474 149.221 145.834 149.429L156.923 155.839C157.282 156.047 157.405 156.507 157.198 156.867C157.059 157.108 156.806 157.243 156.547 157.243Z" fill="#222222"/>
<path d="M189.183 160.924H160.228C159.812 160.924 159.476 160.587 159.476 160.171V130.694C159.476 130.425 159.62 130.177 159.853 130.042L169.919 124.243C170.151 124.109 170.438 124.109 170.67 124.244L189.558 135.163C189.791 135.297 189.934 135.546 189.934 135.815V160.026C189.934 160.05 189.933 160.074 189.93 160.098C189.933 160.122 189.934 160.146 189.934 160.171C189.934 160.587 189.598 160.924 189.183 160.924ZM160.98 159.419H188.432V136.249L170.294 125.764L160.98 131.13V159.419Z" fill="#222222"/>
<path d="M185.417 140.604C185.29 140.604 185.161 140.572 185.042 140.503L173.953 134.093C173.593 133.885 173.47 133.425 173.678 133.065C173.886 132.705 174.345 132.582 174.704 132.79L185.793 139.2C186.153 139.408 186.276 139.868 186.068 140.228C185.93 140.469 185.677 140.604 185.417 140.604Z" fill="#222222"/>
<path d="M185.417 147.083C185.29 147.083 185.161 147.05 185.042 146.982L173.953 140.571C173.593 140.364 173.47 139.904 173.678 139.544C173.886 139.184 174.345 139.061 174.704 139.268L185.793 145.679C186.153 145.887 186.276 146.347 186.068 146.707C185.93 146.948 185.677 147.083 185.417 147.083Z" fill="#222222"/>
<path d="M185.417 153.561C185.29 153.561 185.161 153.528 185.042 153.46L173.953 147.049C173.593 146.841 173.47 146.382 173.678 146.022C173.886 145.662 174.345 145.538 174.704 145.746L185.793 152.157C186.153 152.365 186.276 152.824 186.068 153.185C185.93 153.426 185.677 153.561 185.417 153.561Z" fill="#222222"/>
<path d="M185.417 160.039C185.29 160.039 185.161 160.007 185.042 159.938L173.953 153.528C173.593 153.32 173.47 152.86 173.678 152.5C173.886 152.14 174.345 152.017 174.704 152.225L185.793 158.635C186.153 158.843 186.276 159.303 186.068 159.663C185.93 159.904 185.677 160.039 185.417 160.039Z" fill="#222222"/>
<path d="M131.357 161C131.159 161 130.968 160.921 130.827 160.781C130.686 160.64 130.606 160.448 130.606 160.248V114.942C130.606 114.673 130.75 114.424 130.983 114.29L141.049 108.491C141.281 108.357 141.567 108.357 141.8 108.491L160.688 119.411C160.92 119.545 161.064 119.793 161.064 120.062V160.171C161.064 160.586 160.728 160.923 160.314 160.924L131.359 161H131.357ZM132.109 115.377V159.493L159.561 159.421V120.496L141.424 110.011L132.109 115.377Z" fill="#222222"/>
</g>
<path d="M87 35L104.727 17.5L116.545 29.1667L139 7H124.818M139 16.3333V21" stroke="#222222" stroke-width="2" stroke-linecap="round" stroke-linejoin="round"/>
<defs>
<clipPath id="clip0_2328_29952">
<rect width="210.341" height="112" fill="white" transform="translate(0 49)"/>
</clipPath>
</defs>
</svg>
