<svg width="550" height="464" viewBox="0 0 550 464" fill="none" xmlns="http://www.w3.org/2000/svg">
<path d="M279.285 392.623C394.484 392.623 487.872 389.832 487.872 386.391C487.872 382.948 394.484 380.158 279.285 380.158C164.087 380.158 70.6997 382.948 70.6997 386.391C70.6997 389.832 164.087 392.623 279.285 392.623Z" fill="#DDDDDD"/>
<path d="M307.788 383.869H166.166C154.679 383.869 146.945 374.412 148.893 362.746L205.931 21.124C207.879 9.45748 218.771 0 230.258 0H371.881C383.368 0 391.101 9.45748 389.153 21.124L332.115 362.746C330.167 374.412 319.276 383.869 307.788 383.869Z" fill="#00A0F3"/>
<path d="M290.099 383.869H148.477C136.99 383.869 129.256 374.412 131.204 362.746L188.242 21.124C190.19 9.45748 201.081 0 212.569 0H354.191C365.679 0 373.412 9.45748 371.464 21.124L314.426 362.746C312.478 374.412 301.587 383.869 290.099 383.869Z" fill="#DDDDDD"/>
<path d="M290.913 372.448H151.476C145.511 372.448 141.496 367.538 142.507 361.48L199.123 22.3894C200.135 16.3318 205.79 11.4213 211.755 11.4213H351.192C357.156 11.4213 361.172 16.3318 360.16 22.3894L303.545 361.48C302.533 367.538 296.878 372.448 290.913 372.448Z" fill="white"/>
<path d="M304.112 125.672H170.786L184.682 47.7112C185.592 42.9577 190.125 39.1043 194.805 39.1043H320.69C325.371 39.1043 328.427 42.9577 327.517 47.7112L314.235 117.066C313.324 121.819 308.792 125.672 304.112 125.672Z" fill="url(#paint0_linear)"/>
<path d="M293.366 115.64H93.7698C89.0898 115.64 86.033 111.787 86.9434 107.033L100.225 37.679C101.136 32.9254 105.668 29.072 110.348 29.072H309.945C314.625 29.072 317.681 32.9254 316.771 37.679L303.489 107.033C302.579 111.787 298.046 115.64 293.366 115.64Z" fill="#FBBC05"/>
<path d="M280.632 363.607L156.837 364.204C152.157 364.204 149.101 360.351 150.011 355.598L163.293 286.243C164.203 281.49 168.735 277.636 173.416 277.636L297.21 277.04C301.891 277.04 304.947 280.893 304.037 285.647L290.755 355.001C289.844 359.754 285.312 363.607 280.632 363.607Z" fill="#F01E9C" fill-opacity="0.9"/>
<path d="M170.452 342.606C173.974 314.626 200.152 291.944 228.921 291.944C257.69 291.944 278.157 314.626 274.634 342.606" stroke="#DDDDDD" stroke-width="16.5208" stroke-miterlimit="10" stroke-linecap="round"/>
<path d="M170.452 342.606C173.974 314.626 200.152 291.944 228.921 291.944C243.16 291.944 255.365 297.5 263.634 306.505" stroke="white" stroke-width="16.5208" stroke-miterlimit="10" stroke-linecap="round"/>
<path d="M265.828 267.234H177.188C172.457 267.234 169.259 263.339 170.046 258.534L188.766 144.178C189.553 139.373 194.026 135.478 198.757 135.478H287.396C292.127 135.478 295.325 139.373 294.539 144.178L275.818 258.534C275.032 263.339 270.559 267.234 265.828 267.234Z" fill="#EA4335"/>
<path d="M204.483 195.95H192.397C191.733 195.974 191.095 196.226 190.59 196.665C190.085 197.105 189.743 197.706 189.619 198.37L183.056 238.466C182.991 238.763 182.996 239.071 183.067 239.366C183.138 239.661 183.275 239.935 183.466 240.169C183.658 240.402 183.9 240.588 184.172 240.712C184.446 240.837 184.743 240.896 185.041 240.886H197.127C197.792 240.863 198.429 240.611 198.934 240.171C199.44 239.731 199.782 239.13 199.906 238.466L206.469 198.37C206.533 198.074 206.529 197.766 206.458 197.471C206.387 197.175 206.25 196.901 206.058 196.667C205.867 196.434 205.625 196.248 205.352 196.124C205.079 196 204.782 195.94 204.483 195.95Z" fill="white"/>
<path d="M226.533 209.67H214.448C213.783 209.692 213.146 209.944 212.641 210.384C212.135 210.824 211.793 211.425 211.669 212.089L207.351 238.466C207.288 238.763 207.292 239.071 207.363 239.366C207.434 239.661 207.571 239.935 207.763 240.169C207.954 240.402 208.195 240.588 208.468 240.712C208.741 240.837 209.039 240.896 209.338 240.886H221.423C222.088 240.863 222.726 240.611 223.23 240.171C223.735 239.731 224.078 239.13 224.201 238.466L228.519 212.089C228.583 211.792 228.579 211.484 228.508 211.189C228.436 210.894 228.3 210.62 228.108 210.386C227.917 210.153 227.675 209.967 227.403 209.843C227.129 209.719 226.832 209.659 226.533 209.67Z" fill="white"/>
<path d="M255.723 171.07H243.637C242.973 171.093 242.336 171.345 241.83 171.785C241.325 172.225 240.983 172.826 240.859 173.49L230.222 238.467C230.159 238.763 230.163 239.071 230.234 239.366C230.305 239.661 230.442 239.935 230.633 240.169C230.825 240.402 231.066 240.588 231.339 240.713C231.612 240.837 231.91 240.896 232.208 240.886H244.294C244.959 240.863 245.596 240.611 246.101 240.171C246.607 239.731 246.949 239.13 247.073 238.467L257.709 173.49C257.773 173.193 257.769 172.885 257.698 172.59C257.626 172.295 257.49 172.021 257.298 171.787C257.107 171.554 256.865 171.368 256.592 171.243C256.319 171.119 256.022 171.06 255.723 171.07Z" fill="white"/>
<path d="M276.52 187.914H264.435C263.77 187.936 263.132 188.188 262.627 188.628C262.123 189.068 261.78 189.669 261.657 190.333L253.777 238.467C253.713 238.763 253.717 239.071 253.789 239.366C253.86 239.661 253.996 239.935 254.188 240.169C254.379 240.402 254.621 240.588 254.894 240.713C255.167 240.837 255.464 240.896 255.763 240.886H267.848C268.514 240.863 269.151 240.611 269.656 240.171C270.161 239.731 270.504 239.13 270.627 238.467L278.507 190.333C278.57 190.036 278.566 189.728 278.495 189.433C278.424 189.138 278.287 188.864 278.095 188.63C277.904 188.397 277.663 188.211 277.389 188.087C277.117 187.963 276.819 187.903 276.52 187.914Z" fill="white"/>
<path d="M197.612 149.546H230.333" stroke="white" stroke-width="10" stroke-miterlimit="10" stroke-linecap="round"/>
<path d="M195.765 160.83H212.125" stroke="white" stroke-width="10" stroke-miterlimit="10" stroke-linecap="round"/>
<path opacity="0.6" d="M186.583 249.057H192.911" stroke="white" stroke-width="6" stroke-miterlimit="10" stroke-linecap="round"/>
<path opacity="0.6" d="M210.879 249.057H217.207" stroke="white" stroke-width="6" stroke-miterlimit="10" stroke-linecap="round"/>
<path opacity="0.6" d="M233.749 249.057H240.078" stroke="white" stroke-width="6" stroke-miterlimit="10" stroke-linecap="round"/>
<path opacity="0.6" d="M257.304 249.057H263.633" stroke="white" stroke-width="6" stroke-miterlimit="10" stroke-linecap="round"/>
<path d="M382.097 267.234H293.458C288.727 267.234 285.529 263.339 286.316 258.534L305.036 144.178C305.823 139.373 310.295 135.478 315.027 135.478H403.666C408.398 135.478 411.595 139.373 410.808 144.178L392.088 258.534C391.302 263.339 386.829 267.234 382.097 267.234Z" fill="#999999"/>
<path d="M318.457 213.19H306.372C305.707 213.213 305.07 213.465 304.565 213.904C304.06 214.344 303.717 214.945 303.594 215.609L299.326 238.466C299.262 238.763 299.266 239.071 299.338 239.366C299.409 239.661 299.546 239.935 299.737 240.169C299.929 240.402 300.17 240.588 300.443 240.713C300.716 240.837 301.013 240.896 301.312 240.886H313.398C314.062 240.863 314.7 240.611 315.205 240.171C315.71 239.731 316.052 239.13 316.176 238.466L320.444 215.609C320.507 215.312 320.503 215.004 320.432 214.71C320.361 214.415 320.224 214.14 320.033 213.907C319.841 213.673 319.6 213.487 319.327 213.363C319.054 213.239 318.757 213.18 318.457 213.19Z" fill="white"/>
<path d="M347.367 177.796H335.282C334.617 177.819 333.98 178.071 333.475 178.51C332.97 178.95 332.627 179.551 332.504 180.215L323.621 238.467C323.558 238.763 323.562 239.071 323.633 239.366C323.704 239.661 323.841 239.935 324.032 240.169C324.224 240.402 324.465 240.588 324.739 240.713C325.011 240.837 325.309 240.896 325.608 240.886H337.693C338.358 240.863 338.995 240.611 339.501 240.171C340.005 239.731 340.348 239.13 340.472 238.467L349.354 180.215C349.417 179.918 349.413 179.61 349.342 179.316C349.271 179.021 349.135 178.746 348.943 178.513C348.751 178.279 348.51 178.093 348.237 177.969C347.964 177.845 347.667 177.786 347.367 177.796Z" fill="white"/>
<path d="M367.995 194.428H355.909C355.244 194.451 354.607 194.702 354.102 195.142C353.597 195.582 353.254 196.183 353.131 196.847L346.493 238.466C346.429 238.763 346.433 239.071 346.504 239.366C346.575 239.661 346.712 239.935 346.904 240.169C347.096 240.402 347.337 240.588 347.61 240.713C347.883 240.837 348.18 240.896 348.479 240.886H360.564C361.229 240.863 361.867 240.611 362.372 240.171C362.877 239.731 363.219 239.13 363.343 238.466L369.981 196.847C370.045 196.55 370.04 196.242 369.969 195.948C369.898 195.653 369.762 195.378 369.57 195.145C369.379 194.911 369.137 194.725 368.864 194.601C368.591 194.477 368.294 194.418 367.995 194.428Z" fill="white"/>
<path d="M392.791 187.914H380.705C380.04 187.936 379.403 188.188 378.898 188.628C378.392 189.068 378.05 189.669 377.926 190.333L370.047 238.467C369.983 238.763 369.987 239.071 370.059 239.366C370.13 239.661 370.267 239.935 370.458 240.169C370.65 240.402 370.891 240.588 371.164 240.713C371.437 240.837 371.734 240.896 372.033 240.886H384.119C384.783 240.863 385.421 240.611 385.926 240.171C386.431 239.731 386.773 239.13 386.897 238.467L394.777 190.333C394.84 190.036 394.836 189.728 394.765 189.433C394.694 189.138 394.557 188.864 394.366 188.63C394.174 188.397 393.933 188.211 393.66 188.087C393.387 187.963 393.089 187.903 392.791 187.914Z" fill="white"/>
<path d="M313.882 149.546H346.603" stroke="white" stroke-width="10" stroke-miterlimit="10" stroke-linecap="round"/>
<path d="M312.035 160.83H328.395" stroke="white" stroke-width="10" stroke-miterlimit="10" stroke-linecap="round"/>
<path opacity="0.6" d="M302.853 249.057H309.181" stroke="white" stroke-width="6" stroke-miterlimit="10" stroke-linecap="round"/>
<path opacity="0.6" d="M327.149 249.057H333.477" stroke="white" stroke-width="6" stroke-miterlimit="10" stroke-linecap="round"/>
<path opacity="0.6" d="M350.02 249.057H356.349" stroke="white" stroke-width="6" stroke-miterlimit="10" stroke-linecap="round"/>
<path opacity="0.6" d="M373.575 249.057H379.903" stroke="white" stroke-width="6" stroke-miterlimit="10" stroke-linecap="round"/>
<path d="M5.85131 395.753L31.0213 449.228L27.8999 450.743C26.8461 451.255 25.636 451.321 24.5351 450.925C23.4343 450.531 22.5328 449.708 22.0297 448.638L0.655805 403.231C0.152711 402.161 0.0880658 400.932 0.476553 399.814C0.865628 398.696 1.67552 397.78 2.72931 397.269L5.85131 395.753Z" fill="#222222"/>
<path d="M33.2539 383.678L15.8831 390.971L25.6281 404.967L41.0278 400.195L33.2539 383.678Z" fill="#FFCCB3"/>
<path d="M22.1586 391.53C22.1586 391.53 28.9404 402.167 29.9637 408.112C30.9869 414.055 34.4903 444.122 33.5476 446.833C32.87 448.781 30.4086 449.617 28.847 449.794C28.5043 449.831 28.1587 449.758 27.8584 449.587C27.5581 449.416 27.3171 449.154 27.1702 448.837L4.32232 400.297C3.9403 399.487 3.88681 398.557 4.17245 397.708C4.45867 396.858 5.06109 396.157 5.85158 395.753C9.01237 394.14 13.8476 391.724 15.8835 390.971C19.0302 389.808 21.1072 389.815 22.1586 391.53Z" fill="#00A0F3"/>
<path d="M145.127 416.978L121.522 461.23C120.966 462.273 120.025 463.048 118.906 463.386C117.787 463.724 116.581 463.597 115.554 463.032L112.512 461.358L140.311 409.244L143.353 410.917C144.38 411.482 145.143 412.438 145.476 413.575C145.809 414.711 145.684 415.935 145.127 416.978Z" fill="#222222"/>
<path d="M113.544 395.778L130.53 403.952L120.1 417.43L104.958 411.874L113.544 395.778Z" fill="#FFCCB3"/>
<path d="M124.234 404.188C124.234 404.188 116.932 414.464 115.614 420.348C114.297 426.232 109.302 456.081 110.108 458.836C110.688 460.817 113.104 461.778 114.655 462.034C114.996 462.089 115.344 462.035 115.653 461.879C115.961 461.723 116.215 461.474 116.377 461.166L141.612 413.859C142.033 413.07 142.133 412.145 141.89 411.282C141.647 410.418 141.079 409.687 140.311 409.244C137.234 407.47 132.525 404.808 130.529 403.953C127.444 402.629 125.37 402.53 124.234 404.188Z" fill="#00A0F3"/>
<path d="M164.716 332.74C164.716 332.74 171.219 365.534 166.173 371.96L37.5868 405.398L26.6216 384.539L101.71 349.935L116.748 329.003L164.716 332.74Z" fill="#222222"/>
<path d="M132.177 356.14L103.807 365.777L90.568 371.414L107.784 387.144L92.3923 390.675L50.4104 356.14H132.177Z" fill="#333333"/>
<path d="M34.679 381.804L35.5517 384.884L55.4874 400.686L74.2142 396.046C74.2142 396.046 38.0884 378.586 34.679 381.804Z" fill="#333333"/>
<path d="M70.7685 330.827C70.7685 330.827 34.4088 328.824 16.3867 330.433C4.78207 331.469 0.598639 361.627 9.85945 367.113L109.248 418.794L120.96 397.302L56.8453 353.227L102.714 346.675L70.7685 330.827Z" fill="#222222"/>
<path d="M19.4432 369.681C30.1809 369.681 38.8858 360.841 38.8858 349.935C38.8858 339.03 30.1809 330.189 19.4432 330.189C8.70482 330.189 0 339.03 0 349.935C0 360.841 8.70482 369.681 19.4432 369.681Z" fill="#222222"/>
<path d="M162.943 372.231C173.68 372.231 182.385 363.391 182.385 352.486C182.385 341.58 173.68 332.74 162.943 332.74C152.204 332.74 143.5 341.58 143.5 352.486C143.5 363.391 152.204 372.231 162.943 372.231Z" fill="#222222"/>
<path d="M109.681 259.309C107.633 249.04 112.45 249.305 114.053 247.672C114.053 247.672 120.067 242.636 124.65 247.33C129.5 252.296 157.305 290.873 157.305 290.873L139.908 307.123L136.637 303.159L128.167 292.899L119.106 281.933L117.981 280.685L105.758 266.626C105.758 266.626 110.84 264.716 109.681 259.309Z" fill="#0868AC"/>
<path d="M119.33 269.622C126.332 267.241 130.106 259.546 127.761 252.435C125.416 245.324 117.839 241.49 110.837 243.872C103.835 246.254 100.06 253.949 102.406 261.059C104.751 268.17 112.328 272.004 119.33 269.622Z" fill="#0868AC"/>
<path d="M118.141 280.63C117.79 278.484 117.089 274.191 116.333 270.279L112.32 251.343C112.32 251.343 123.1 267.524 128.067 278.795C131.745 287.241 136.012 295.85 136.718 303.132L128.247 292.872L119.187 281.906L118.141 280.63Z" fill="#005D9E"/>
<path d="M174.682 247.442C178.816 239.784 176.83 238.484 178.588 234.128C180.321 229.876 177.245 219.337 180.19 220.774C183.134 222.211 184.046 226.031 184.046 226.031C186.06 222.412 187.915 215.754 192.736 214.992C197.558 214.23 197.985 215.771 200.718 218.049C207.989 224.193 198.717 233.426 197.17 236.941C196.174 239.146 188.859 245.865 188.048 247.333L184.366 252.757L174.682 247.442Z" fill="#FFCCB3"/>
<path d="M188.887 226.505L194.762 215.489L188.887 226.505Z" fill="#E56441"/>
<path d="M188.887 226.505L194.762 215.489" stroke="#E56441" stroke-width="0.94666" stroke-linecap="round"/>
<path d="M192.737 228.289L199.141 218.029L192.737 228.289Z" fill="#E56441"/>
<path d="M192.737 228.289L199.141 218.029" stroke="#E56441" stroke-width="0.94666" stroke-linecap="round"/>
<path d="M197.31 230.261L200.97 224.048L197.31 230.261Z" fill="#E56441"/>
<path d="M197.31 230.261L200.97 224.048" stroke="#E56441" stroke-width="0.94666" stroke-linecap="round"/>
<path d="M187.435 236.203C187.404 232.388 185.15 227.773 185.15 227.773L187.435 236.203Z" fill="#E56441"/>
<path d="M187.435 236.203C187.404 232.388 185.15 227.773 185.15 227.773" stroke="#E56441" stroke-width="0.94666" stroke-linecap="round"/>
<path d="M139.76 290.565L175.137 242.72C175.362 242.439 175.683 242.253 176.035 242.197C176.388 242.141 176.749 242.22 177.047 242.418L186.311 248.64C186.751 248.943 187.065 249.401 187.191 249.926C187.317 250.451 187.247 251.004 186.993 251.479L158.544 304.761L139.76 290.565Z" fill="#0868AC"/>
<path d="M148.356 310.774C154.899 310.774 160.203 305.388 160.203 298.743C160.203 292.098 154.899 286.711 148.356 286.711C141.813 286.711 136.509 292.098 136.509 298.743C136.509 305.388 141.813 310.774 148.356 310.774Z" fill="#0868AC"/>
<path d="M95.8213 237.096C95.8213 237.096 115.674 242.432 119.082 243.816C122.49 245.2 122.717 250.738 122.944 254.66C123.171 258.583 122.408 346.675 122.408 346.675L78.4722 344.959L45.6147 325.426C45.6147 325.426 47.0435 255.528 47.4978 252.298C47.9521 249.068 44.3817 246.286 48.2519 244.66L73.1303 237.985L95.8213 237.096Z" fill="#0868AC"/>
<path d="M62.7599 268.477L63.1137 333.563L44.2253 312.183L53.3639 266.452L62.7599 268.477Z" fill="#005D9E"/>
<path d="M69.89 238.98C69.89 238.98 67.0795 244.721 69.89 248.68C72.7005 252.64 83.9519 256.487 91.6388 256.373C99.3251 256.261 103.398 248.817 99.9134 238.397L87.1827 234.765L73.1301 237.985L69.89 238.98Z" fill="#1B5489"/>
<path d="M101.711 189.509C101.711 189.509 107.246 201.639 101.342 204.145C95.4387 206.651 96.1263 190.098 101.711 189.509Z" fill="#222222"/>
<path d="M95.467 228.325L97.0686 246.663C97.0686 246.663 98.6037 249.122 92.6248 250.413C88.7787 251.243 78.4218 247.099 76.4123 245.856C75.5578 245.395 74.8883 244.647 74.5193 243.739C74.1502 242.83 74.1043 241.82 74.3894 240.881C75 238.637 77.5308 219.942 77.5308 219.942L95.467 228.325Z" fill="#FFCCB3"/>
<path d="M95.7756 231.86L86.2356 227.074L96.8711 244.402L95.7756 231.86Z" fill="#FF967C"/>
<path d="M98.532 193.019C98.532 193.019 104.131 207.279 106.161 217.282C108.21 227.375 104.941 229.895 100.628 231.379C97.2255 232.55 91.7926 233.484 88.097 232.309C81.3575 230.166 74.7644 223.981 73.1875 222.711C70.7461 220.745 68.3358 211.824 71.9139 206.777C75.4926 201.73 89.5915 185.87 98.532 193.019Z" fill="#FFCCB3"/>
<path d="M91.3237 212.702C92.0683 212.404 92.3093 211.228 91.862 210.073C91.4147 208.919 90.4491 208.225 89.7045 208.522C88.9598 208.82 88.7189 209.996 89.1655 211.151C89.6128 212.305 90.579 212.999 91.3237 212.702Z" fill="#080B09"/>
<path d="M101.558 208.537C102.302 208.24 102.543 207.062 102.096 205.909C101.649 204.754 100.683 204.06 99.9384 204.357C99.1938 204.655 98.9528 205.832 99.4001 206.986C99.8467 208.14 100.813 208.835 101.558 208.537Z" fill="#080B09"/>
<path d="M97.8043 210.506C97.8043 210.506 96.895 213.3 98.8063 213.028C100.623 212.705 101.856 213.616 100.269 215.489" fill="#E56441"/>
<path d="M97.8043 210.506C97.8043 210.506 96.895 213.3 98.8063 213.028C100.623 212.705 101.856 213.616 100.269 215.489" stroke="#E56441" stroke-width="0.94666" stroke-linecap="round"/>
<path d="M100.357 217.959L100.367 217.957L100.376 217.954C100.403 217.946 100.431 217.945 100.457 217.952C100.484 217.958 100.509 217.972 100.529 217.991C100.549 218.011 100.564 218.035 100.571 218.062C100.578 218.09 100.579 218.118 100.572 218.145L100.566 218.169L100.564 218.192C100.447 219.415 100.147 220.142 99.7831 220.551C99.4316 220.946 98.9908 221.077 98.4906 221.038C97.9776 220.998 97.4139 220.779 96.8679 220.477C96.3284 220.179 95.8271 219.814 95.4398 219.5C95.4133 219.475 95.3939 219.443 95.3833 219.408C95.3716 219.372 95.3704 219.332 95.3798 219.295C95.3886 219.258 95.408 219.223 95.4345 219.196C95.4615 219.169 95.495 219.15 95.532 219.141L95.535 219.14C97.0125 218.76 99.2412 218.226 100.357 217.959Z" fill="#E56441" stroke="#E56441"/>
<path d="M83.9677 205.889L84.1076 206.01C84.2868 206.197 84.5789 206.333 84.9204 206.388C85.2613 206.443 85.6245 206.413 85.9295 206.304L91.0939 204.345C91.3501 204.257 91.5429 204.112 91.6346 203.94C91.7257 203.768 91.7092 203.581 91.5876 203.417C91.5206 203.314 91.4195 203.221 91.2896 203.143C91.1603 203.066 91.0057 203.007 90.8359 202.969C90.6666 202.932 90.4862 202.917 90.3063 202.925C90.1265 202.934 89.9519 202.966 89.7938 203.019L84.4896 204.857C84.3433 204.903 84.2134 204.966 84.107 205.043C84.0012 205.12 83.9213 205.209 83.8731 205.305C83.8243 205.401 83.8073 205.503 83.8237 205.603C83.8402 205.703 83.889 205.801 83.9677 205.889Z" fill="#080B09"/>
<path d="M102.681 200.397L96.6205 200.714C96.4413 200.725 96.2679 200.757 96.1122 200.808C95.9564 200.859 95.8218 200.929 95.7172 201.012C95.6126 201.095 95.5403 201.189 95.505 201.289C95.4698 201.389 95.4721 201.492 95.5121 201.591C95.5644 201.754 95.7231 201.901 95.957 202.001C96.1915 202.102 96.4836 202.149 96.7763 202.133L102.833 201.952C103.185 201.936 103.512 201.843 103.741 201.691C103.971 201.54 104.086 201.343 104.06 201.144L104.064 201.008C104.047 200.916 103.997 200.827 103.918 200.746C103.838 200.665 103.731 200.594 103.602 200.536C103.473 200.479 103.325 200.438 103.167 200.414C103.009 200.39 102.843 200.384 102.681 200.397Z" fill="#080B09"/>
<path d="M91.5832 195.865C91.5832 195.865 88.5582 201.71 83.07 203.444C77.5818 205.178 80.581 213.974 80.581 213.974C80.581 213.974 76.8178 210.172 72.4921 212.313C68.1659 214.452 71.4495 222.852 77.4261 222.958L75.8004 232.409C75.8004 232.409 72.7736 228.582 69.5905 226.533C66.4068 224.485 54.9714 216.534 60.0229 206.062C60.0229 206.062 56.0704 191.358 66.9105 183.734C77.7505 176.11 87.133 178.987 87.133 178.987C87.133 178.987 89.7172 174.824 95.7073 175.674C101.697 176.525 103.079 187.494 101.095 191.461C99.1114 195.429 95.8789 197.115 91.5832 195.865Z" fill="#222222"/>
<path d="M46.4207 254.473C54.0442 247.412 56.2951 251.745 58.4985 252.303C58.4985 252.303 65.8428 254.955 64.2312 261.36C62.528 268.138 44.225 312.183 44.225 312.183L21.5593 305.374L23.2273 300.488L27.5424 287.837L32.1513 274.309L32.6274 272.687L38.2249 254.814C38.2249 254.814 42.4489 258.26 46.4207 254.473Z" fill="#0868AC"/>
<path d="M61.5182 266.694C66.3205 260.997 65.6658 252.426 60.0565 247.548C54.4472 242.671 46.0069 243.336 41.2052 249.033C36.4029 254.729 37.057 263.301 42.6669 268.178C48.2761 273.055 56.7159 272.39 61.5182 266.694Z" fill="#0868AC"/>
<path d="M41.981 301.365L84.061 343.241C84.3061 343.505 84.446 343.852 84.4542 344.214C84.4624 344.577 84.3384 344.929 84.1057 345.204L76.8208 353.717C76.4676 354.121 75.9792 354.377 75.4502 354.435C74.9219 354.494 74.3906 354.35 73.9604 354.033L25.6663 318.42L41.981 301.365Z" fill="#0868AC"/>
<path d="M32.8737 320.981C39.4168 320.981 44.7211 315.595 44.7211 308.95C44.7211 302.305 39.4168 296.918 32.8737 296.918C26.3311 296.918 21.0269 302.305 21.0269 308.95C21.0269 315.595 26.3311 320.981 32.8737 320.981Z" fill="#0868AC"/>
<path d="M101.334 293.298L78.497 357.553H32.5791C32.5791 355.591 33.3467 353.709 34.7125 352.322C36.079 350.934 37.9315 350.156 39.8634 350.156H73.0835L92.8034 293.298H101.334Z" fill="white"/>
<path d="M101.335 293.298H162.943L139.117 357.553H78.4978L101.335 293.298Z" fill="#F1F1F1"/>
<path d="M187.36 83.7482C187.36 83.7482 197.625 81.5523 200.881 86.6221C204.137 91.692 207.393 101.216 214.773 99.9814C222.153 98.7465 227.796 73.8365 235.176 74.0573C242.557 74.2776 239.301 90.5901 247.332 90.8104C255.363 91.0306 253.41 81.7725 259.922 81.7725C266.434 81.7725 264.262 101.612 272.728 101.832C281.194 102.053 280.325 76.2616 293.132 76.7021" stroke="white" stroke-width="5" stroke-miterlimit="10" stroke-linecap="round"/>
<path d="M157.394 80.3209C162.622 67.2798 157.588 52.8748 146.152 48.1464C134.715 43.4179 121.206 50.1567 115.979 63.1978C110.751 76.2389 115.784 90.6439 127.221 95.3723C138.657 100.101 152.167 93.362 157.394 80.3209Z" stroke="#E5E5E5" stroke-width="16.5208" stroke-miterlimit="10" stroke-linecap="round"/>
<path d="M147.335 92.9401C141.301 96.9821 133.907 98.1365 127.221 95.3723C115.784 90.6439 110.751 76.2389 115.979 63.1978C121.206 50.1567 134.715 43.4179 146.152 48.1464" stroke="white" stroke-width="16.5208" stroke-miterlimit="10" stroke-linecap="round"/>
<path d="M195.075 46.6351H240.246" stroke="white" stroke-width="10" stroke-miterlimit="10" stroke-linecap="round"/>
<path opacity="0.6" d="M192.935 59.2888H211.312" stroke="white" stroke-width="10" stroke-miterlimit="10" stroke-linecap="round"/>
<path d="M537.053 361.143C536.923 361.157 536.865 361.231 536.935 361.29C536.876 361.362 536.876 361.362 536.894 361.495C536.618 362.405 536.424 363.337 536.312 364.282L547.455 373.378L548.69 371.97C548.69 371.97 544.576 366.803 543.036 365.3C542.372 364.637 541.778 364.033 541.184 363.43C540.667 362.885 540.203 362.267 539.756 361.781C539.133 360.912 537.329 361.246 537.311 361.113C537.241 361.055 537.053 361.143 537.053 361.143Z" fill="#444444"/>
<path d="M452.79 282.11L463.551 292.7L523.717 351.707L524.816 352.724L525.292 353.474L525.363 353.533L533.885 366.647L534.837 368.147L535.154 368.647L540.92 377.581L536.171 379.98L534.796 380.668L532.856 381.619L529.794 383.228L529.741 383.301L526.491 384.999L526.332 384.749L518.927 370.374C517.493 367.597 515.477 365.171 513.026 363.263L447.601 312.4L435.165 302.731L452.79 282.11Z" fill="#FFCCB3"/>
<path d="M533.062 354.021C530.176 352.661 526.938 351.444 523.776 351.634C525.68 353.33 526.55 356.349 527.814 358.55C530.405 363.08 537.053 371.498 533.655 378.652C531.745 382.671 526.409 384.807 526.332 384.748C525.439 388.877 521.013 405.681 529.841 395.94C534.772 390.5 539.662 384.689 542.119 378.921C543.13 376.556 540.996 374.197 539.95 372.201C538.61 369.179 536.612 365.178 536.864 361.833L536.917 361.759C537.064 361.528 548.496 371.921 548.689 371.97C549.083 371.324 550 370.019 550 370.019C550 370.019 533.608 354.228 533.062 354.021Z" fill="#222222"/>
<path d="M409.951 408.991C409.848 408.908 409.756 408.92 409.767 409.013C409.675 409.024 409.675 409.024 409.594 409.129C408.772 409.585 407.991 410.114 407.261 410.71L408.964 425.127L410.815 424.996C410.815 424.996 411.434 418.382 411.364 416.21C411.346 415.265 411.338 414.413 411.33 413.561C411.334 412.802 411.43 412.032 411.445 411.367C411.599 410.306 410.076 409.26 410.157 409.155C410.146 409.062 409.951 408.991 409.951 408.991Z" fill="#444444"/>
<path d="M404.141 292.656L404.538 307.866L406.915 392.775L407 394.281L406.824 395.156L406.835 395.249L403.897 410.676L403.545 412.424L403.426 413.008L401.399 423.49L396.35 421.831L394.893 421.345L392.851 420.646L389.557 419.626L389.466 419.637L385.977 418.545L386.036 418.254L390.64 402.719C391.524 399.713 391.755 396.549 391.317 393.444L379.574 310.623L377.341 294.878L404.141 292.656Z" fill="#FFCCB3"/>
<path d="M412.001 401.064C410.876 398.044 409.4 394.876 407.008 392.764C407.203 395.332 405.745 398.107 405.13 400.575C403.866 405.655 402.821 416.394 395.467 419.095C391.335 420.613 386.047 418.347 386.036 418.254C382.555 420.57 367.817 429.437 380.835 428.744C388.106 428.356 395.603 427.676 401.332 425.299C403.682 424.324 403.782 421.124 404.409 418.954C405.532 415.843 406.856 411.561 409.34 409.349L409.432 409.338C409.695 409.276 410.71 424.823 410.815 424.996C411.54 424.813 413.093 424.529 413.093 424.529C413.093 424.529 412.251 401.603 412.001 401.064Z" fill="#222222"/>
<path d="M387.931 178.538L366.662 269.752L366.623 276.228L383.918 384.235L411.456 381.207L403.467 278.055L425.376 224.234L420.947 180.097L387.931 178.538Z" fill="#222222"/>
<path d="M384.954 291.907C395.225 291.907 403.552 283.451 403.552 273.02C403.552 262.589 395.225 254.132 384.954 254.132C374.682 254.132 366.356 262.589 366.356 273.02C366.356 283.451 374.682 291.907 384.954 291.907Z" fill="#222222"/>
<path d="M410.447 260.907L405.202 215.84L403.467 278.055L410.447 260.907Z" fill="#444444"/>
<path d="M445.344 178.253C445.344 178.253 455.259 195.172 455.388 209.341C455.588 230.606 448.036 268.736 448.036 268.736L513.973 336.42L498.275 360.323C498.275 360.323 442.012 312.913 418.206 290.393L412.873 279.429L405.202 215.84L416.928 178.253H445.344Z" fill="#222222"/>
<path d="M387.931 178.538L445.685 179.141L451.298 190.936L386.956 182.724L387.931 178.538Z" fill="#444444"/>
<path d="M431.306 295.875C441.577 295.875 449.905 287.419 449.905 276.987C449.905 266.556 441.577 258.099 431.306 258.099C421.034 258.099 412.708 266.556 412.708 276.987C412.708 287.419 421.034 295.875 431.306 295.875Z" fill="#222222"/>
<path d="M381.189 53.1941C381.189 53.1941 381.965 61.9616 379.687 70.3895C377.408 78.8174 360.16 96.6639 375.456 111.206C390.752 125.748 409.464 86.7492 409.464 86.7492L403.606 68.7367L383.349 47.334L381.189 53.1941Z" fill="#222222"/>
<path d="M427.855 55.2408C427.855 55.2408 432.445 61.163 442.904 66.0036C453.166 70.7542 464.215 78.5625 461.941 95.583C459.661 112.603 429.323 99.3839 420.41 89.6339C411.498 79.8845 412.724 62.4773 412.724 62.4773L427.855 55.2408Z" fill="#222222"/>
<path d="M404.393 87.1336C404.393 87.1336 392.75 91.8119 390.973 93.2558C389.195 94.7002 387.507 106.487 384.485 112.082C381.464 117.679 377.043 128.008 383.5 137.496C389.956 146.983 389.27 154.517 389.27 154.517L387.896 178.316L443.54 179.358C444.034 179.374 444.522 179.283 444.974 179.094C445.427 178.904 445.832 178.618 446.173 178.256C446.508 177.894 446.761 177.463 446.925 176.993C447.084 176.522 447.143 176.022 447.102 175.527C446.485 168.587 443.658 158.843 443.434 147.793C443.135 132.819 442.911 82.7842 442.911 82.7842L418.669 82.0112C413.786 82.8666 404.393 87.1336 404.393 87.1336Z" fill="#FBBC05"/>
<path d="M433.368 103.237C433.368 103.237 425.259 110.747 424.781 116.318C424.305 121.889 423.202 137.423 412.779 138.972C400.005 140.871 396.662 142.721 402.584 144.174C408.505 145.627 421.945 143.273 421.945 149.503C421.945 153.937 427.166 157.254 429.791 154.832C432.414 152.41 453.313 115.591 433.368 103.237Z" fill="#D9A50E"/>
<path d="M335.564 109.531L331.168 103.816C330.248 102.479 329.024 101.385 327.6 100.629C325.437 99.5289 322.12 97.4768 320.967 95.426C319.057 92.1659 311.53 83.3602 318.059 76.5158C320.477 73.9898 319.873 74.5873 324.704 74.6631C329.536 74.7383 330.278 79.8303 332.692 83.1632C332.692 83.1632 333.235 79.3187 335.903 77.5621C338.573 75.8055 336.801 86.5343 338.855 90.6003C340.908 94.6662 339.249 96.2031 344.113 103.347L335.564 109.531Z" fill="#FFCCB3"/>
<path d="M323.969 75.2498L327.896 84.2967L323.969 75.2498Z" fill="#E56441"/>
<path d="M323.969 75.2498L327.896 84.2967" stroke="#E56441" stroke-width="0.94666" stroke-linecap="round"/>
<path d="M318.848 76.8584L324.288 86.492L318.848 76.8584Z" fill="#E56441"/>
<path d="M318.848 76.8584L324.288 86.492" stroke="#E56441" stroke-width="0.94666" stroke-linecap="round"/>
<path d="M315.635 83.1925L319.924 88.9434L315.635 83.1925Z" fill="#E56441"/>
<path d="M315.635 83.1925L319.924 88.9434" stroke="#E56441" stroke-width="0.94666" stroke-linecap="round"/>
<path d="M331.682 85.2134C331.682 85.2134 330.02 90.0469 330.308 93.8556L331.682 85.2134Z" fill="#E56441"/>
<path d="M331.682 85.2134C331.682 85.2134 330.02 90.0469 330.308 93.8556" stroke="#E56441" stroke-width="0.94666" stroke-linecap="round"/>
<path d="M393.802 91.6991C389.288 93.288 382.996 96.5105 381.293 100.106L366.249 134.911L341.195 96.2491L331.707 106.398L355.105 155.545C359.381 166.353 370.242 170.413 378.109 158.765L390.68 138.714L393.802 91.6991Z" fill="#FBBC05"/>
<path d="M387.385 121.66C387.385 121.66 386.029 119.284 386.029 131.688L378.109 158.765L390.679 138.714C400.763 124.946 392.796 121.268 387.385 121.66Z" fill="#FF967C"/>
<path d="M414.966 105.239L373.409 122.049C372.118 122.571 371.489 124.058 372.003 125.369L392.803 178.4C393.317 179.711 394.78 180.351 396.072 179.829L437.628 163.018C438.92 162.496 439.549 161.009 439.035 159.698L418.235 106.667C417.721 105.356 416.258 104.716 414.966 105.239Z" fill="#1779D3"/>
<path d="M379.75 127.037L396.887 120.105" stroke="white" stroke-width="4" stroke-miterlimit="10" stroke-linecap="round"/>
<path d="M382.338 133.268L390.149 130.108" stroke="white" stroke-width="4" stroke-miterlimit="10" stroke-linecap="round"/>
<path d="M402.919 74.6667L403.573 93.2707C403.573 93.2707 402.677 97.3444 406.794 96.8925C410.911 96.4407 416.454 93.1483 419.569 89.5325C422.685 85.9166 422.472 85.6265 421.137 83.2533C419.801 80.8808 413.533 62.7949 413.533 62.7949L402.919 74.6667Z" fill="#FFCCB3"/>
<path d="M403.012 76.2269L410.603 71.3176C410.603 71.3176 407.24 86.3093 403.573 93.2707L403.012 76.2269Z" fill="#FCBA9F"/>
<path d="M382.545 46.8261C382.545 46.8261 382.423 65.3405 390.289 74.6583C395.419 80.7345 400.815 79.9287 409.816 69.9251C418.069 60.7529 419.226 55.9726 419.226 55.9726L413.527 37.8085C413.527 37.8085 383.471 29.9763 382.545 46.8261Z" fill="#FFCCB3"/>
<path d="M390.371 42.5309C390.371 42.5309 393.666 50.6562 399.785 52.9267C405.903 55.1972 407.504 59.4195 407.504 59.4195C407.504 59.4195 408.678 52.4725 413.487 52.7249C418.296 52.9774 417.318 61.5993 414.334 64.4619C414.334 64.4619 417.924 71.2251 420.969 76.2269L434.302 62.7876C434.302 62.7876 427.432 54.7221 425.922 48.2323C424.411 41.7424 419.523 24.3686 400.885 25.5194C379.003 26.8701 380.26 44.9286 381.189 54.9585C381.189 54.9585 388.052 52.2862 390.371 42.5309Z" fill="#222222"/>
<path d="M392.741 68.9331L398.06 66.283C398.064 66.3134 398.069 66.3462 398.073 66.3802C398.109 66.6638 398.126 67.0535 398.05 67.4815C397.9 68.3189 397.392 69.3354 395.881 69.9955C394.91 70.3149 394.083 69.9997 393.476 69.5807C393.171 69.37 392.929 69.1372 392.762 68.9564C392.755 68.9486 392.748 68.9408 392.741 68.9331Z" fill="#E56441" stroke="#E56441"/>
<path d="M386.946 61.4142C387.618 61.2453 387.965 60.2933 387.721 59.287C387.476 58.2807 386.733 57.6014 386.06 57.7703C385.388 57.9387 385.041 58.8913 385.286 59.8976C385.531 60.9033 386.274 61.5826 386.946 61.4142Z" fill="#080B09"/>
<path d="M396.914 59.068C397.586 58.8996 397.933 57.947 397.688 56.9407C397.443 55.935 396.7 55.2557 396.028 55.424C395.356 55.593 395.009 56.545 395.253 57.5513C395.498 58.5576 396.241 59.2369 396.914 59.068Z" fill="#080B09"/>
<path d="M383.078 55.9887L388.151 54.8063C388.236 54.7788 388.307 54.7209 388.354 54.6439C388.4 54.5663 388.416 54.475 388.401 54.3861C388.344 54.2351 388.259 54.0966 388.148 53.9796C388.038 53.8632 387.905 53.7701 387.758 53.7068C387.612 53.6436 387.453 53.6113 387.294 53.6113C387.134 53.6119 386.977 53.6454 386.83 53.7092L382.853 55.4205C382.521 55.5034 382.665 56.0925 383.078 55.9887Z" fill="#080B09"/>
<path d="M400.11 51.3772L393.504 53.48C393.46 53.2705 393.459 53.0538 393.503 52.8443C393.546 52.6348 393.632 52.4367 393.755 52.2624C393.879 52.0887 394.036 51.9431 394.218 51.835C394.401 51.727 394.603 51.6589 394.813 51.6351L400.091 50.9361C400.257 50.8949 400.359 51.3151 400.11 51.3772Z" fill="#080B09"/>
<path d="M390.503 58.0497L389.786 63.4819L391.676 64.4082" fill="#E56441"/>
<path d="M390.503 58.0497L389.786 63.4818L391.676 64.4082" stroke="#E56441" stroke-width="0.94666" stroke-linecap="round"/>
<path d="M395.533 153.296L379.148 158.07L377.145 168.324L380.873 179.673C380.873 179.673 383.494 177.882 382.947 173.705C382.401 169.527 396.246 169.647 398.784 164.395" fill="#FFCCB3"/>
<path d="M432.96 96.7804C432.96 96.7804 432.852 82.6858 443.969 82.684C451.427 82.6828 454.994 86.2336 455.947 97.314C456.611 105.061 457.093 147.566 457.093 147.566C457.093 147.566 458.967 166.965 442.764 167.327L395.978 165.904L394.922 152.629L435.706 148.501L432.96 96.7804Z" fill="#FBBC05"/>
<path d="M399.128 95.0177C399.128 95.0177 403.347 93.7983 402.663 89.5898C401.996 85.448 401.97 81.8525 403.309 82.3532C403.309 82.3532 404.489 84.4095 411.832 82.124C419.126 79.9239 418.669 77.3825 418.669 77.3825C418.669 77.3825 419.701 76.4537 420.472 78.8376C421.242 81.2216 423.196 87.823 427.327 87.3479L428.444 99.6525L406.473 106.997C406.425 107.082 396.27 97.0925 399.128 95.0177Z" fill="#FBBC05"/>
<path d="M219.926 340.562H233.749" stroke="white" stroke-width="5" stroke-miterlimit="10" stroke-linecap="round"/>
<path opacity="0.5" d="M222.74 346.654H229.652" stroke="white" stroke-width="5" stroke-miterlimit="10" stroke-linecap="round"/>
<path d="M210.718 328.398L221.325 320.887L228.797 325.94L238.741 318.626" stroke="white" stroke-width="6.50414" stroke-linecap="round" stroke-linejoin="round"/>
<path d="M231.096 315.438H241.674V326.068" stroke="white" stroke-width="6.50414" stroke-linecap="round" stroke-linejoin="round"/>
<path d="M366.221 134.899L373.257 145.514L369.505 127.378L366.221 134.899Z" fill="#D9A50E"/>
<defs>
<linearGradient id="paint0_linear" x1="245.326" y1="38.8984" x2="256.395" y2="223.936" gradientUnits="userSpaceOnUse">
<stop stop-color="white"/>
<stop offset="1" stop-color="#FBBC05"/>
</linearGradient>
</defs>
</svg>
