<svg width="102" height="174" viewBox="0 0 102 174" fill="none" xmlns="http://www.w3.org/2000/svg">
<path d="M41.3364 124.242C42.2638 124.942 43.5212 125.476 45.1109 125.842C46.6009 126.143 48.5877 126.244 50.3764 126.244C51.8665 126.244 53.704 126.043 54.8467 125.743C56.5348 125.309 57.7597 124.725 58.5216 123.991L58.3235 125.543C57.7597 126.176 56.8497 126.71 55.5912 127.144C54.35 127.595 52.5115 127.844 50.8234 127.894C48.4882 127.945 46.5512 127.844 44.9128 127.394C43.5548 127.028 42.3796 126.443 41.3862 125.643L41.3364 124.242Z" fill="white"/>
<path d="M25.3425 123.04C25.2928 123.04 25.1932 123.04 25.1434 122.99C24.3989 122.339 24.2994 121.088 24.3492 120.387C24.3492 120.238 24.4985 120.087 24.6467 120.087C24.7961 120.087 24.9454 120.237 24.9454 120.387C24.9454 120.838 24.9454 121.989 25.5417 122.489C25.6899 122.59 25.6899 122.789 25.5903 122.94C25.5416 122.99 25.4421 123.04 25.3425 123.04Z" fill="#222222" stroke="#222222"/>
<path d="M24.4479 118.136C24.2985 118.136 24.199 118.036 24.1492 117.935C23.7023 116.484 24.2488 114.983 24.6459 113.932C24.7455 113.682 24.845 113.431 24.8948 113.232C25.0441 112.781 24.9943 112.281 24.9446 111.73C24.8948 110.979 24.845 110.229 25.1924 109.528C25.8882 108.177 26.584 107.126 27.3285 106.024C27.875 105.224 28.4214 104.423 28.9679 103.422C29.3153 102.821 29.6128 102.221 29.9115 101.671C30.7058 100.069 31.5011 98.5674 33.041 97.5163C33.7357 97.066 34.3817 96.5154 34.978 96.0149C36.1694 95.014 37.2126 94.1133 38.1064 94.363C38.4548 94.4633 38.7026 94.664 38.852 95.014C39.2491 95.9648 38.7524 97.6166 38.2557 98.4671C37.7092 99.4681 36.7159 100.569 35.822 101.57L35.3751 102.071C34.5798 102.971 33.9348 105.323 33.885 105.323C33.8353 105.474 33.6859 105.574 33.4879 105.524C33.3386 105.474 33.239 105.323 33.2888 105.124C33.3386 105.023 33.9846 102.621 34.8784 101.62L35.3253 101.12C36.1694 100.119 37.113 99.0178 37.6595 98.1171C38.1562 97.2666 38.5035 95.8644 38.2557 95.2146C38.2059 95.0641 38.1064 94.9638 37.9084 94.9137C37.3121 94.7643 36.3685 95.6148 35.3253 96.4652C34.6793 97.0159 34.0344 97.5665 33.3386 98.0168C31.948 98.9174 31.2522 100.319 30.458 101.92C30.1593 102.521 29.8617 103.122 29.5144 103.723C28.9679 104.673 28.4214 105.524 27.8749 106.324C27.1294 107.425 26.4347 108.477 25.7886 109.778C25.491 110.328 25.5408 110.979 25.5895 111.63C25.6393 112.181 25.6891 112.781 25.491 113.331C25.4413 113.531 25.3417 113.781 25.2422 114.082C24.8948 115.083 24.3981 116.484 24.7455 117.736C24.7952 117.885 24.6957 118.086 24.5474 118.136C24.4977 118.136 24.4977 118.136 24.4479 118.136Z" fill="#222222" stroke="#222222"/>
<path d="M30.2096 111.829C30.1101 111.829 30.0116 111.779 29.9618 111.73C29.8623 111.579 29.8623 111.379 30.0116 111.278C32.2462 109.577 35.0272 109.427 37.9587 109.227L38.5538 109.177C41.336 108.977 43.7199 108.826 43.8692 107.276C43.919 106.324 42.6767 106.174 40.4908 106.024C39.9952 105.974 39.4487 105.924 38.9023 105.874L38.5041 105.823C35.8724 105.524 34.2329 105.323 31.9984 106.374C31.6997 106.474 31.4021 106.625 31.1035 106.775C30.2096 107.175 29.1665 107.576 28.5215 108.076C28.3722 108.176 28.1731 108.126 28.0735 108.026C27.975 107.875 28.0248 107.676 28.1233 107.576C28.8689 107.025 29.912 106.575 30.8556 106.174C31.1532 106.024 31.4519 105.924 31.7495 105.774C34.1334 104.673 35.9221 104.873 38.6036 105.174L39.0018 105.224C39.5483 105.273 40.0439 105.323 40.5406 105.373C42.826 105.574 44.6137 105.724 44.4644 107.325C44.3161 109.427 41.6335 109.628 38.6036 109.827L38.0074 109.877C35.1765 110.078 32.4951 110.228 30.4087 111.829C30.359 111.829 30.3092 111.829 30.2096 111.829Z" fill="#222222" stroke="#222222"/>
<path d="M28.8189 118.736C28.7193 118.736 28.57 118.686 28.5213 118.536C28.4715 118.385 28.5213 118.186 28.6696 118.136C29.7625 117.635 32.7427 116.534 33.8854 116.284C35.7228 115.883 36.9651 115.784 38.256 115.633C38.7527 115.583 39.2992 115.533 39.8955 115.483L40.0935 115.433C41.9807 115.233 43.9675 114.982 44.2661 113.531C44.3159 113.33 44.2661 113.181 44.1666 113.031C43.6699 112.43 41.8325 112.43 41.0869 112.43C40.8391 112.43 40.6897 112.43 40.5902 112.43C39.6466 112.33 38.7527 112.33 37.412 112.33C36.766 112.33 36.0702 112.33 35.1763 112.33C32.5446 112.28 31.4517 112.48 27.6264 113.831C27.4781 113.881 27.279 113.781 27.2293 113.631C27.1795 113.481 27.279 113.281 27.4284 113.231C31.3521 111.879 32.4451 111.629 35.1763 111.68C36.0215 111.68 36.766 111.68 37.412 111.68C38.8025 111.68 39.6964 111.68 40.64 111.779C40.7395 111.779 40.8888 111.779 41.0869 111.779C42.0803 111.779 43.9675 111.779 44.6633 112.58C44.9122 112.88 44.9619 113.181 44.9122 113.581C44.5637 115.483 42.2296 115.734 40.193 115.983L39.995 116.033C39.3988 116.084 38.9021 116.134 38.3556 116.184C37.0636 116.284 35.8721 116.434 34.0347 116.785C32.892 117.034 30.0114 118.136 28.9184 118.586C28.8687 118.736 28.8687 118.736 28.8189 118.736Z" fill="#222222" stroke="#222222"/>
<path d="M30.1599 124.742C30.0116 124.742 29.9121 124.642 29.8623 124.542C29.8125 124.391 29.9121 124.192 30.0614 124.142C30.7561 123.941 31.2031 123.691 31.6002 123.541C32.4453 123.141 32.9918 122.89 34.8292 123.04C35.2761 123.091 35.7231 123.141 36.1202 123.141C38.3061 123.39 39.6966 123.441 39.9455 122.339C39.9953 122.14 39.9455 121.989 39.8459 121.79C39.3492 120.988 37.3625 120.538 35.7728 120.188C35.4255 120.088 35.0273 120.038 34.7297 119.937C33.2396 119.587 32.0969 119.738 30.9552 119.887C30.5083 119.937 30.0116 119.987 29.5149 120.038C29.3656 120.038 29.2163 119.937 29.1665 119.737C29.1665 119.587 29.2661 119.437 29.4652 119.387C29.9121 119.387 30.359 119.286 30.8557 119.237C32.0471 119.087 33.2396 118.936 34.8292 119.336C35.1268 119.437 35.4753 119.487 35.8724 119.587C37.6601 119.987 39.6966 120.438 40.3426 121.439C40.5407 121.74 40.5904 122.09 40.4909 122.44C40.0937 124.142 38.107 123.941 36.0217 123.691C35.6235 123.641 35.1766 123.591 34.7297 123.591C33.0416 123.441 32.6434 123.691 31.8491 124.041C31.4519 124.241 31.005 124.442 30.2594 124.692C30.227 124.725 30.1934 124.742 30.1599 124.742Z" fill="#222222" stroke="#222222"/>
<path d="M4.38116 134.551C4.3487 134.551 4.31515 134.551 4.28161 134.551C4.13336 134.501 4.0338 134.301 4.13336 134.151C5.32477 131.098 9.29831 129.247 12.5274 127.745C13.5705 127.245 14.5639 126.793 15.408 126.293C19.7786 123.79 22.9579 120.588 25.0929 112.58C25.1427 112.43 25.292 112.33 25.4911 112.38C25.6394 112.43 25.7389 112.58 25.6892 112.781C23.5044 120.988 20.1271 124.341 15.7055 126.894C14.8615 127.394 13.8681 127.844 12.7752 128.345C9.5472 129.846 5.82146 131.598 4.72852 134.451C4.58027 134.501 4.48072 134.551 4.38116 134.551Z" fill="#222222" stroke="#222222"/>
<path d="M10.1436 150.717C9.1502 150.717 8.25529 150.466 7.61035 150.016C4.92777 148.114 3.48747 144.06 2.84145 141.858C1.74851 137.954 0.75512 133.701 1.05378 129.297C1.30159 125.993 2.34476 122.29 3.28836 118.987C3.4377 118.536 3.53725 118.086 3.68658 117.636C4.67997 114.032 5.77182 107.275 5.8216 107.226C5.87138 107.076 6.02071 106.925 6.17005 106.975C6.3183 107.025 6.46763 107.176 6.41785 107.325C6.41785 107.375 5.27513 114.182 4.28175 117.835C4.18327 118.287 4.03394 118.737 3.88461 119.187C2.99078 122.44 1.94762 126.144 1.69981 129.396C1.40115 133.701 2.34476 137.854 3.4377 141.708C4.48086 145.361 6.12027 148.215 7.95771 149.515C9.84492 150.866 14.2654 149.916 17.6438 146.462C20.6726 143.359 24.2988 137.854 27.8752 130.898C28.7192 129.247 29.7624 128.196 30.7558 127.195C31.4516 126.494 32.1961 125.743 32.8919 124.793C32.9914 124.642 33.1895 124.642 33.3388 124.743C33.4881 124.842 33.4881 125.042 33.3886 125.193C32.6928 126.194 31.8985 126.944 31.2027 127.695C30.2093 128.696 29.2159 129.647 28.4217 131.199C24.7955 138.155 21.1206 143.761 18.0409 146.913C15.7057 149.315 12.627 150.717 10.1436 150.717Z" fill="#222222" stroke="#222222"/>
<path d="M59.1177 133.201C58.3732 133.201 57.6276 133.15 56.882 133.1H56.7337C56.3366 133.05 55.7901 133.05 55.1939 133C53.4051 132.9 51.1706 132.749 49.8298 132.55C48.29 132.349 46.9481 132.049 46.9979 130.648C47.0477 129.597 48.0411 129.247 48.7867 129.046C50.0278 128.646 51.717 128.546 53.3565 128.395C54.8963 128.295 56.4351 128.146 57.5778 127.845C59.7637 127.195 61.0546 125.543 62.3954 123.791C63.0414 122.99 63.6874 122.09 64.4319 121.339C64.5315 121.238 64.7306 121.238 64.8789 121.339C64.9784 121.439 64.9784 121.639 64.8789 121.789C64.1344 122.54 63.4883 123.34 62.8921 124.192C61.5513 125.943 60.1608 127.795 57.7769 128.496C56.6342 128.846 54.9948 128.946 53.4549 129.096C51.8664 129.197 50.227 129.346 49.0842 129.697C48.2402 129.947 47.6937 130.148 47.6937 130.748C47.6937 131.348 48.0411 131.749 49.9781 131.999C51.2701 132.2 53.6042 132.3 55.2934 132.449C55.8897 132.499 56.3864 132.499 56.8333 132.55H56.9816C58.5712 132.65 60.2106 132.799 61.7504 132.3C62.3954 132.099 63.2903 131.249 64.2837 130.248C65.724 128.896 67.5116 127.145 69.7971 125.943C69.9453 125.843 70.1444 125.943 70.1942 126.094C70.2938 126.244 70.1942 126.444 70.0449 126.494C67.8103 127.695 66.0713 129.346 64.631 130.698C63.4883 131.798 62.6443 132.65 61.85 132.849C60.9551 133.15 60.0115 133.201 59.1177 133.201Z" fill="#222222" stroke="#222222"/>
<path d="M68.2564 128.895C68.1071 128.895 68.0076 128.796 67.9578 128.695C67.908 128.545 68.0075 128.344 68.1569 128.295C70.4412 127.544 73.6205 127.494 77.6438 128.145C77.7921 128.195 77.9414 128.344 77.8916 128.495C77.8419 128.645 77.6936 128.796 77.5443 128.746C73.6205 128.095 70.5408 128.145 68.3549 128.845C68.3549 128.895 68.3062 128.895 68.2564 128.895Z" fill="#222222" stroke="#222222"/>
<path d="M94.6798 155.471C93.1897 155.471 91.7494 154.82 90.558 154.12L90.3091 153.969C88.4219 152.918 85.2924 151.167 82.9085 147.664C81.2193 145.211 80.1772 142.508 79.0345 139.606C77.5444 135.852 76.0046 131.948 72.9249 128.245C72.8253 128.095 72.8253 127.894 72.9746 127.794C73.124 127.695 73.3231 127.695 73.4215 127.844C76.551 131.648 78.0909 135.552 79.6307 139.405C80.7724 142.259 81.8155 144.961 83.4549 147.312C85.7404 150.666 88.819 152.367 90.6565 153.418L90.9053 153.569C92.8423 154.67 95.4253 155.671 97.7595 153.619C98.9022 152.618 99.4984 149.365 99.8458 147.764L99.8956 147.563C101.038 141.658 99.9454 135.452 98.9022 129.496L98.8026 128.845C98.6544 128.095 98.5051 127.094 98.2562 125.943C97.4619 121.739 96.2694 115.332 95.6245 109.527C95.6245 109.377 95.7229 109.228 95.922 109.177C96.0714 109.177 96.2196 109.278 96.2694 109.477C96.8656 115.282 98.0581 121.639 98.8524 125.842C99.0515 126.994 99.2496 127.995 99.3989 128.746L99.4984 129.396C100.542 135.452 101.683 141.708 100.492 147.714L100.442 147.913C100.095 149.665 99.4984 152.968 98.1577 154.12C96.9652 155.07 95.8225 155.471 94.6798 155.471Z" fill="#222222" stroke="#222222"/>
<path d="M99.0512 141.107C98.9018 141.107 98.7525 141.007 98.7525 140.857C98.1076 137.403 95.7723 135.202 92.842 132.399C90.2092 129.946 87.2788 127.144 84.5475 122.69C83.1072 120.337 82.2621 118.436 81.5176 116.685C81.1205 115.784 80.7233 114.882 80.3251 114.082C79.2322 111.98 75.3582 110.328 73.1236 110.528C72.2785 110.629 71.4344 110.729 70.5904 110.828C69.1998 111.029 67.8093 111.179 66.2695 111.229C65.3746 111.229 64.5305 111.129 63.8358 111.029C62.8911 110.929 62.1964 110.828 61.8479 111.079C61.6997 111.229 61.6001 111.479 61.6001 111.879C61.5503 113.982 64.1334 115.233 66.6666 115.483C67.8093 115.633 68.951 115.633 69.8946 115.633C71.3349 115.633 72.5771 115.633 73.5705 116.034C73.7199 116.084 73.8183 116.284 73.7696 116.434C73.7198 116.584 73.5207 116.685 73.3714 116.634C72.4776 116.333 71.2862 116.283 69.8946 116.283C68.9012 116.283 67.7595 116.283 66.5671 116.134C63.7362 115.833 60.9541 114.382 60.9541 111.879C60.9541 111.279 61.1034 110.878 61.401 110.629C61.9475 110.178 62.7926 110.278 63.8358 110.428C64.5305 110.528 65.3248 110.629 66.1699 110.629C67.66 110.579 69.0007 110.428 70.441 110.229C71.2364 110.128 72.0804 110.028 72.9743 109.928C75.4577 109.728 79.5806 111.429 80.8218 113.781C81.2687 114.582 81.6172 115.483 82.0641 116.384C82.8086 118.086 83.6537 119.987 85.0442 122.29C87.7257 126.644 90.6561 129.446 93.2391 131.848C96.269 134.752 98.7027 137.003 99.3487 140.657C99.3985 140.808 99.2492 141.007 99.0999 141.007C99.0999 141.107 99.0999 141.107 99.0512 141.107Z" fill="#222222" stroke="#222222"/>
<path d="M58.8692 121.689C58.7199 121.689 58.6203 121.589 58.5706 121.489C58.5208 121.338 58.6203 121.139 58.7697 121.088C62.0474 119.887 64.3329 117.835 66.3683 115.734C66.4679 115.633 66.667 115.583 66.8152 115.734C66.9148 115.833 66.9646 116.034 66.8152 116.184C65.5243 117.535 62.8417 120.287 59.0175 121.689C58.9677 121.689 58.9179 121.689 58.8692 121.689Z" fill="#222222" stroke="#222222"/>
<path d="M47.3961 130.648H47.3463C47.2965 130.648 44.2168 130.047 42.2798 129.846C39.9457 129.596 38.7034 129.096 38.5541 128.245C38.4058 127.544 39.1503 126.244 41.7334 125.693C41.8827 125.643 42.0807 125.743 42.0807 125.943C42.1305 126.093 42.0309 126.293 41.8329 126.293C39.3992 126.843 39.1006 127.894 39.1503 128.145C39.2001 128.345 39.5475 128.996 42.3296 129.246C43.6206 129.379 45.326 129.647 47.4448 130.047C47.5941 130.097 47.7434 130.247 47.6937 130.397C47.6439 130.547 47.5443 130.648 47.3961 130.648Z" fill="#222222" stroke="#222222"/>
<path d="M39.2 105.824C39.0507 105.824 38.9025 105.724 38.9025 105.524L38.4058 100.969C38.4058 100.819 38.5042 100.67 38.6536 100.619C38.8029 100.619 38.9522 100.72 39.002 100.869L39.4987 105.424C39.5474 105.674 39.3991 105.824 39.2 105.824C39.2498 105.824 39.2498 105.824 39.2 105.824Z" fill="#222222"/>
<path d="M39.2 105.824C39.0507 105.824 38.9025 105.724 38.9025 105.524L38.4058 100.969C38.4058 100.819 38.5042 100.67 38.6536 100.619C38.8029 100.619 38.9522 100.72 39.002 100.869L39.4987 105.424C39.5474 105.674 39.3991 105.824 39.2 105.824ZM39.2 105.824C39.2498 105.824 39.2498 105.824 39.2 105.824Z" stroke="#222222"/>
<path d="M39.9454 112.33C39.796 112.33 39.6467 112.231 39.6467 112.08L39.3491 109.628C39.3491 109.477 39.4487 109.327 39.5969 109.278C39.7463 109.278 39.8956 109.377 39.9454 109.528L40.243 111.98C40.2927 112.18 40.1434 112.33 39.9454 112.33C39.9951 112.33 39.9951 112.33 39.9454 112.33Z" fill="#222222"/>
<path d="M39.9454 112.33C39.796 112.33 39.6467 112.231 39.6467 112.08L39.3491 109.628C39.3491 109.477 39.4487 109.327 39.5969 109.278C39.7463 109.278 39.8956 109.377 39.9454 109.528L40.243 111.98C40.2927 112.18 40.1434 112.33 39.9454 112.33ZM39.9454 112.33C39.9951 112.33 39.9951 112.33 39.9454 112.33Z" stroke="#222222"/>
<path d="M49.9778 128.145C49.6802 128.145 49.4313 128.145 49.1337 128.145C45.8062 128.045 41.6834 127.245 41.1369 125.342V125.293L40.0439 115.784C40.0439 115.633 40.1435 115.483 40.2928 115.433C40.4422 115.433 40.5904 115.533 40.6402 115.683L41.7331 125.192C42.1303 126.393 45.2598 127.394 49.1337 127.494C52.958 127.595 57.3795 126.843 58.124 124.942L60.1605 100.368C60.1605 100.218 60.3099 100.069 60.5079 100.069C60.6572 100.069 60.8066 100.218 60.8066 100.419L58.77 125.042C58.77 125.092 58.77 125.092 58.77 125.142C57.9746 127.394 53.7035 128.145 49.9778 128.145Z" fill="#222222" stroke="#222222"/>
<path d="M38.504 97.2158C38.4055 97.2158 38.2562 97.1155 38.2064 97.0153C38.1567 96.8648 38.2064 96.6654 38.4055 96.6152C38.7031 96.515 39.0018 96.4147 39.3491 96.3144C39.4985 96.2643 39.6965 96.3646 39.6965 96.5651C39.7463 96.7155 39.6467 96.915 39.4487 96.915C39.15 96.9651 38.8524 97.0654 38.6036 97.1657C38.6036 97.2158 38.5538 97.2158 38.504 97.2158Z" fill="#222222"/>
<path d="M48.6865 100.369C43.62 100.369 39.2991 99.769 37.7094 98.8672C37.5601 98.7669 37.5103 98.5674 37.6099 98.4671C37.7095 98.3166 37.9086 98.2665 38.007 98.3668C39.5469 99.2674 44.3158 99.818 49.6301 99.769C56.9311 99.6687 61.6005 98.4169 61.6005 97.6166C61.6005 97.416 61.1038 96.9657 59.9113 96.6157C59.763 96.5655 59.6635 96.415 59.7133 96.2155C59.763 96.065 59.9113 95.9647 60.1104 96.0149C61.1535 96.3147 62.2465 96.8654 62.2465 97.6166C62.2963 99.5182 54.7463 100.319 49.6798 100.369C49.2827 100.369 48.984 100.369 48.6865 100.369Z" fill="#222222" stroke="#222222"/>
<path fill-rule="evenodd" clip-rule="evenodd" d="M48.935 96.7658C45.1595 96.7658 39.0996 96.3646 39.0996 94.8632C39.0996 94.6135 39.0996 93.763 43.1727 93.1622C45.0101 92.9114 47.2458 92.7119 49.5799 92.7119C53.2061 92.6618 60.11 92.9616 60.1598 94.6135C60.1598 96.2152 53.3057 96.7658 49.6297 96.8149C49.4306 96.7658 49.1828 96.7658 48.935 96.7658ZM50.5235 93.3116C50.226 93.3116 49.9273 93.3116 49.6297 93.3116C47.3454 93.3618 45.0599 93.5122 43.2723 93.763C40.4414 94.1632 39.7456 94.7138 39.6959 94.8632C39.7954 95.3637 43.322 96.2152 49.6297 96.1149C55.9374 96.0146 59.4142 95.0638 59.5138 94.5633C59.464 94.1632 56.2858 93.3116 50.5235 93.3116Z" fill="#222222" stroke="#222222"/>
<path d="M48.8354 98.2661C44.8619 98.2661 39.1494 97.9161 39.0996 96.4648C39.0996 96.2315 39.0996 95.6809 39.0996 94.8129H39.6959C39.6959 95.6809 39.6959 96.2315 39.6959 96.4648C39.8452 96.9151 43.0732 97.7166 49.6795 97.6162C55.8887 97.5159 59.4142 96.5651 59.5636 96.0647C59.5636 95.9306 59.5636 95.4475 59.5636 94.6134H60.1598C60.1598 95.4475 60.1598 95.9306 60.1598 96.0647C60.1598 96.4648 59.8611 97.0656 57.0303 97.6162C55.0933 97.9662 52.4605 98.217 49.6795 98.2661C49.4306 98.2661 49.133 98.2661 48.8354 98.2661Z" fill="#222222" stroke="#222222"/>
<path d="M48.8856 102.221C43.8689 102.221 37.163 101.57 37.1132 99.7686C37.1132 99.7185 37.1133 99.5179 37.0635 99.2671C37.0635 99.1177 37.163 98.9672 37.3621 98.9171C37.5104 98.9171 37.6597 99.0174 37.7095 99.218C37.7095 99.4677 37.7593 99.6683 37.7593 99.7686C37.7593 100.469 41.8822 101.72 49.7297 101.62C52.9576 101.57 55.9876 101.269 58.273 100.77C60.856 100.219 61.5507 99.6182 61.5507 99.3674C61.5507 99.218 61.6503 98.0666 61.6503 97.7166C61.6503 97.5661 61.7996 97.4156 61.9977 97.4156C62.147 97.4156 62.2963 97.5661 62.2963 97.7657C62.2465 98.4668 62.1968 99.2671 62.1968 99.3674C62.1968 100.169 60.9545 100.869 58.471 101.419C56.1369 101.92 53.0572 102.221 49.7795 102.27C49.431 102.221 49.1334 102.221 48.8856 102.221Z" fill="#222222" stroke="#222222"/>
<path d="M49.5804 108.927C47.5439 108.927 45.5571 108.776 43.8192 108.527C43.6699 108.527 43.5205 108.326 43.5703 108.177C43.5703 108.026 43.7694 107.876 43.9187 107.926C48.5372 108.577 55.044 108.577 59.6138 106.625C59.7631 106.575 59.9612 106.625 60.0109 106.774C60.0607 106.925 60.0109 107.125 59.8616 107.176C56.8815 108.476 53.107 108.927 49.5804 108.927Z" fill="#222222" stroke="#222222"/>
<path d="M49.6806 118.986C46.4526 118.986 43.0742 118.436 40.5908 117.235C40.4425 117.135 40.3927 116.984 40.4425 116.834C40.541 116.685 40.6903 116.634 40.8397 116.685C46.0544 119.287 55.6409 118.687 58.9186 116.384C59.0679 116.284 59.267 116.334 59.3655 116.484C59.4651 116.634 59.4153 116.834 59.2671 116.934C57.3798 118.186 53.6043 118.986 49.6806 118.986Z" fill="#222222" stroke="#222222"/>
<path d="M50.028 126.594C46.4527 126.594 42.3796 125.893 41.1871 124.341C41.0875 124.192 41.1373 123.991 41.2369 123.891C41.3862 123.791 41.5842 123.841 41.6838 123.941C42.5776 125.193 46.4527 126.043 50.6242 125.943C54.4982 125.843 57.4286 124.992 58.3235 123.691C58.422 123.541 58.6211 123.491 58.7704 123.591C58.9187 123.691 58.9685 123.891 58.87 124.041C57.8766 125.543 54.7969 126.494 50.674 126.594C50.3764 126.594 50.2271 126.594 50.028 126.594Z" fill="#222222" stroke="#222222"/>
<path fill-rule="evenodd" clip-rule="evenodd" d="M46.6898 95.2355C45.857 95.2355 45.458 95.101 45.458 94.7993C45.458 94.5311 45.8904 94.363 46.6898 94.363C47.5219 94.363 47.9216 94.4975 47.9216 94.7993C47.955 95.101 47.5219 95.2355 46.6898 95.2355ZM46.523 94.7993C46.6565 94.7993 46.7892 94.7993 46.8893 94.7993C46.7892 94.7993 46.6231 94.7993 46.523 94.7993Z" fill="#222222"/>
<path d="M13.8683 167.732C13.8359 167.732 13.8359 167.732 13.8683 167.732C13.6692 167.732 13.521 167.582 13.5707 167.381C14.3152 160.875 15.6073 154.27 17.6925 146.562C17.7423 146.412 17.8916 146.311 18.0907 146.362C18.239 146.412 18.3385 146.562 18.2888 146.762C16.2024 154.419 14.9115 161.026 14.167 167.482C14.167 167.632 14.0176 167.732 13.8683 167.732Z" fill="#222222" stroke="#222222"/>
<path d="M84.1011 167.282C83.9518 167.282 83.8025 167.182 83.8025 167.031C83.3556 163.978 82.8589 161.026 82.3124 158.173C82.0646 156.871 81.8655 155.621 81.6675 154.369C81.4684 153.269 81.2692 152.218 81.0712 151.167C80.5247 148.313 79.9783 145.361 79.7305 141.457C79.7305 141.308 79.8289 141.157 80.0281 141.107C80.1774 141.107 80.3256 141.207 80.3754 141.407C80.5745 145.261 81.1708 148.214 81.7162 151.016C81.9153 152.067 82.1144 153.118 82.3124 154.22C82.5115 155.47 82.7593 156.722 82.9584 158.023C83.4551 160.875 84.0016 163.828 84.4485 166.931C84.4485 167.082 84.349 167.232 84.1011 167.282C84.1509 167.282 84.1509 167.282 84.1011 167.282Z" fill="#222222"/>
<path d="M84.1011 167.282C83.9518 167.282 83.8025 167.182 83.8025 167.031C83.3556 163.978 82.8589 161.026 82.3124 158.173C82.0646 156.871 81.8655 155.621 81.6675 154.369C81.4684 153.269 81.2692 152.218 81.0712 151.167C80.5247 148.313 79.9783 145.361 79.7305 141.457C79.7305 141.308 79.8289 141.157 80.0281 141.107C80.1774 141.107 80.3256 141.207 80.3754 141.407C80.5745 145.261 81.1708 148.214 81.7162 151.016C81.9153 152.067 82.1144 153.118 82.3124 154.22C82.5115 155.47 82.7593 156.722 82.9584 158.023C83.4551 160.875 84.0016 163.828 84.4485 166.931C84.4485 167.082 84.349 167.232 84.1011 167.282ZM84.1011 167.282C84.1509 167.282 84.1509 167.282 84.1011 167.282Z" stroke="#222222"/>
<path d="M20.5246 122.84C20.3255 122.84 20.1762 122.64 20.226 122.49C20.5246 119.738 20.9218 116.984 21.2691 114.332C21.8156 110.128 22.3621 106.175 22.5612 103.071L22.6596 101.62C23.0579 95.5142 23.5048 89.2087 24.0015 83.203C24.5479 76.7961 25.0446 72.1926 26.236 71.1917C26.8821 70.6411 28.62 70.0904 31.6001 69.3392C32.3955 69.1397 32.9419 68.939 33.3889 68.7886C34.0836 68.5389 34.4818 68.3884 35.077 68.6392C35.2263 68.6893 35.3258 68.8889 35.2761 69.0393C35.2263 69.1898 35.0272 69.289 34.8789 69.24C34.5305 69.0895 34.3324 69.1898 33.6366 69.4395C33.1897 69.59 32.6433 69.7895 31.7992 69.9901C28.9684 70.6411 27.2792 71.2408 26.683 71.6922C25.59 72.5427 25.0446 78.7489 24.6464 83.2521C24.101 89.2087 23.7028 95.5644 23.3057 101.62L23.2061 103.071C23.0081 106.225 22.4616 110.178 21.8654 114.382C21.518 117.035 21.1209 119.787 20.8222 122.54C20.8222 122.69 20.6729 122.84 20.5246 122.84Z" fill="#222222" stroke="#222222"/>
<path d="M33.4884 97.667C33.3391 97.667 33.1897 97.5667 33.1897 97.3661C32.3955 88.9584 33.2893 74.5951 34.3325 69.0398C34.3822 68.8893 34.5305 68.7399 34.6798 68.789C34.8291 68.8391 34.9785 68.9896 34.9287 69.1401C33.9353 74.6954 32.9917 88.9584 33.8358 97.3159C33.786 97.5165 33.6864 97.667 33.4884 97.667Z" fill="#222222" stroke="#222222"/>
<path d="M34.5809 69.59C34.4824 69.59 34.3331 69.5398 34.2833 69.3893C34.2335 69.24 34.2833 69.0393 34.4326 68.9892L34.9293 68.7886C38.456 67.237 41.1374 65.536 40.7403 58.8794C40.7403 58.729 40.8399 58.5796 41.0379 58.5294C41.1872 58.5294 41.3366 58.6297 41.3863 58.8293C41.7337 65.2362 39.4991 67.4376 35.1771 69.3392L34.6804 69.5398C34.6307 69.59 34.6307 69.59 34.5809 69.59Z" fill="#222222" stroke="#222222"/>
<path d="M18.8351 113.081C14.9611 113.081 11.1369 110.878 7.80832 108.576C7.16337 108.126 6.51735 107.726 5.97088 107.375C4.4808 106.474 3.58697 105.873 3.73522 105.123C3.88455 104.472 4.13344 103.471 4.43102 102.32C5.02727 100.068 5.72307 97.2662 6.12021 94.8129C6.81493 90.6095 8.70323 82.602 11.3349 79.3484C14.4146 75.4449 20.1272 73.4932 25.739 71.8413C25.8884 71.7911 26.0864 71.8914 26.1362 72.0419C26.1859 72.1924 26.0864 72.3919 25.9381 72.4421C20.4745 74.094 14.8616 75.9955 11.8316 79.7485C9.64684 82.5017 7.66007 89.5585 6.76515 94.9132C6.36802 97.4155 5.62352 100.219 5.02727 102.47C4.72861 103.622 4.4808 104.623 4.33147 105.224C4.28169 105.523 5.27507 106.174 6.26846 106.775C6.81493 107.125 7.46095 107.525 8.15676 107.976C12.179 110.729 16.8981 113.381 21.4181 111.979C21.5675 111.929 21.7655 112.03 21.8153 112.18C21.865 112.329 21.7655 112.53 21.6172 112.58C20.7223 112.93 19.7787 113.081 18.8351 113.081Z" fill="#222222" stroke="#222222"/>
<path d="M67.7107 70.7905C67.6609 70.7905 67.6111 70.7905 67.5613 70.7403C64.0347 69.1397 60.6076 66.887 60.8565 58.8293C60.8565 58.6799 61.0048 58.5294 61.1541 58.5294C61.3034 58.5294 61.4517 58.6799 61.4517 58.8293C61.2039 66.4868 64.4319 68.6392 67.7605 70.1406C67.9087 70.1908 68.0083 70.3903 67.9087 70.5408C67.9585 70.7403 67.8589 70.7905 67.7107 70.7905Z" fill="#222222" stroke="#222222"/>
<path d="M83.0077 114.482C82.1139 114.482 81.2688 114.382 80.4745 114.182C80.3252 114.132 80.2267 113.982 80.2754 113.781C80.3251 113.632 80.4745 113.531 80.6736 113.582C84.0509 114.482 88.3718 113.331 93.5378 110.229C94.2325 109.828 94.8786 109.478 95.425 109.178C96.4682 108.627 97.6098 107.976 97.5611 107.676C97.4616 107.325 97.362 106.776 97.2625 106.175C96.716 103.622 95.8719 99.4179 95.3753 96.4151C94.4814 91.0604 92.5444 84.0036 90.4083 81.2505C87.478 77.4975 82.0641 75.5959 76.3516 73.8437C76.2034 73.7935 76.1038 73.6442 76.1536 73.4435C76.2034 73.2931 76.3516 73.1927 76.5507 73.2429C82.4115 75.0453 87.8751 76.9468 90.905 80.8503C93.4383 84.1541 95.3255 92.1115 95.9715 96.3148C96.4682 99.3176 97.362 103.572 97.8587 106.075C98.008 106.675 98.1076 107.225 98.1563 107.576C98.3056 108.326 97.3122 108.877 95.7226 109.777C95.1761 110.078 94.5312 110.428 93.8354 110.828C89.7125 113.232 86.0874 114.482 83.0077 114.482Z" fill="#222222" stroke="#222222"/>
<path d="M80.2273 113.531C80.0281 113.531 79.8788 113.331 79.9286 113.181C80.276 110.428 81.2196 106.925 82.4618 103.771C82.5116 103.622 82.7107 103.522 82.859 103.622C83.0083 103.672 83.1079 103.872 83.0083 104.022C81.766 107.125 80.8722 110.579 80.5248 113.231C80.5248 113.381 80.3755 113.531 80.2273 113.531Z" fill="#222222" stroke="#222222"/>
<path d="M79.4812 112.83C79.3319 112.83 79.1836 112.681 79.1836 112.53C79.1836 112.43 78.7854 104.322 78.6869 102.671C78.4878 99.9683 78.3883 97.5161 78.2887 95.1642C78.1404 91.8604 77.9911 88.7573 77.6935 85.0544L77.6438 84.4536C77.2466 79.6495 76.7001 73.694 75.7068 72.8926C75.1105 72.4423 73.4213 71.8415 70.5905 71.1917C69.7465 70.991 69.1502 70.7904 68.7531 70.641C68.0573 70.3902 67.8582 70.3401 67.5108 70.4404C67.3615 70.4906 67.1634 70.4404 67.1137 70.2398C67.0639 70.0904 67.1137 69.8898 67.3128 69.8396C67.8582 69.6401 68.3062 69.7895 69.0009 69.9901C69.4478 70.1406 69.9943 70.3401 70.7896 70.5407C73.7698 71.2407 75.4579 71.8415 76.1537 72.3921C77.2953 73.2928 77.7422 77.748 78.3385 84.3533L78.3883 84.9541C78.7356 88.7082 78.8352 91.8102 78.9845 95.114C79.0841 97.4659 79.1836 99.868 79.3816 102.621C79.4812 104.273 79.8783 112.38 79.8783 112.48C79.7788 112.681 79.6803 112.83 79.4812 112.83Z" fill="#222222" stroke="#222222"/>
<path d="M60.4084 104.673C60.2602 104.673 60.1108 104.573 60.1108 104.372C60.1108 104.223 60.2104 104.072 60.4084 104.022C64.0844 103.672 67.3134 102.971 67.5115 102.521C68.1575 93.1623 68.4053 75.5455 67.4617 70.3903C67.4119 70.2398 67.5612 70.0403 67.7106 70.0403C67.8588 69.9901 68.0579 70.1406 68.0579 70.29C69.0015 75.4452 68.7537 93.1623 68.1077 102.571C68.0081 103.773 63.2403 104.422 60.4084 104.673Z" fill="#222222" stroke="#222222"/>
<path d="M51.5666 83.7525C51.3188 83.7525 51.0699 83.7525 50.8221 83.7525C43.9669 83.6031 37.3616 81.0004 33.6359 76.9966C33.5374 76.8963 33.5374 76.6968 33.6359 76.5463C33.7852 76.446 33.9345 76.446 34.0828 76.5463C37.709 80.4498 44.166 82.9521 50.8221 83.1528C57.5269 83.3021 63.6365 81.1007 68.0072 76.8963C68.1068 76.796 68.3059 76.796 68.4541 76.8963C68.5537 76.9966 68.5537 77.1972 68.4541 77.3466C64.1332 81.4507 58.1729 83.7525 51.5666 83.7525Z" fill="#222222" stroke="#222222"/>
<path d="M35.4251 119.237H35.3754C35.226 119.187 35.0767 119.036 35.1265 118.886C35.226 118.285 35.4251 117.235 35.3754 116.484C35.3754 116.333 35.5236 116.184 35.6729 116.184C35.8223 116.184 35.9716 116.333 35.9716 116.484C36.0214 117.284 35.8223 118.385 35.7227 118.986C35.6729 119.087 35.5236 119.237 35.4251 119.237Z" fill="#222222" stroke="#222222"/>
<path d="M38.9024 104.172C38.753 104.172 35.7231 104.122 34.4322 103.171C34.2828 103.071 34.2828 102.871 34.3824 102.721C34.4819 102.571 34.68 102.571 34.8293 102.671C35.972 103.521 38.9024 103.572 38.9522 103.572C39.1004 103.572 39.2497 103.722 39.2497 103.871C39.2497 104.072 39.1004 104.172 38.9024 104.172Z" fill="#222222" stroke="#222222"/>
<path d="M51.6663 64.1846C47.9406 64.1846 44.6629 62.1827 42.9747 60.9811C39.249 58.2291 38.0565 55.0256 37.1129 52.4731C37.0631 52.3226 37.1129 52.1231 37.2622 52.0729C37.4116 52.0228 37.6096 52.0729 37.6594 52.2234V52.2725C38.6528 54.8751 39.7457 57.878 43.3221 60.4807C45.06 61.7814 48.5368 63.8836 52.4119 63.5336C56.037 63.2338 58.9674 60.7303 60.8059 58.7285C62.8911 56.3766 64.233 52.2725 64.431 47.4684C64.431 47.3179 64.5803 47.1685 64.7297 47.1685C64.8779 47.1685 65.0272 47.3179 65.0272 47.4684C64.9277 50.3709 64.2827 55.7267 61.2528 59.1297C58.5702 62.1827 55.5403 63.9338 52.4606 64.1846C52.2128 64.1846 51.9639 64.1846 51.6663 64.1846Z" fill="#222222" stroke="#222222"/>
<path d="M41.3353 40.4116C41.2358 40.4116 41.1362 40.3615 41.0865 40.2612C40.9869 40.1119 41.0367 39.9113 41.186 39.8612C42.7259 39.011 45.0102 38.9609 46.6496 39.3107C46.799 39.3609 46.9472 39.5113 46.8985 39.6606C46.8487 39.811 46.6994 39.9614 46.5501 39.9113C45.0102 39.6116 42.8752 39.6116 41.4836 40.3615C41.4349 40.3615 41.3851 40.4116 41.3353 40.4116Z" fill="#222222" stroke="#222222"/>
<path d="M54.597 39.2604C54.4975 39.2604 54.3492 39.2102 54.2994 39.0609C54.2497 38.9105 54.2994 38.71 54.4477 38.6609C55.7895 38.0102 58.5706 37.8097 59.8128 38.4102C59.9611 38.4604 60.0109 38.6609 59.9611 38.8102C59.9113 38.9606 59.7133 39.0108 59.564 38.9606C58.471 38.4102 55.8891 38.6609 54.6966 39.2102C54.6966 39.2604 54.6468 39.2604 54.597 39.2604Z" fill="#222222" stroke="#222222"/>
<path d="M51.3199 50.7226C51.2203 50.7226 51.1208 50.6725 51.071 50.5722C50.9715 50.4217 51.0212 50.2221 51.1706 50.1218C52.1142 49.5211 52.4128 49.0206 52.3133 48.3195C52.2635 48.1199 52.1142 47.819 51.8664 47.5192C51.3199 46.7679 50.6241 45.7168 51.1208 43.8654C51.1706 43.7149 51.3199 43.6157 51.5179 43.6658C51.6673 43.7149 51.7668 43.8654 51.717 44.066C51.3199 45.6176 51.9161 46.4681 52.4128 47.1692C52.6606 47.5192 52.8598 47.819 52.9085 48.1701C53.1573 49.4207 52.2635 50.1218 51.5179 50.6223C51.4681 50.6725 51.3697 50.7226 51.3199 50.7226Z" fill="#222222" stroke="#222222"/>
<path d="M51.4675 56.8266C49.9276 56.8266 48.3888 56.4767 47.2461 55.9263C47.0968 55.826 47.047 55.6767 47.0968 55.5263C47.1963 55.3759 47.3457 55.3257 47.4939 55.3759C49.7296 56.5269 53.4542 56.6773 55.7895 54.9759C55.9377 54.8756 56.1368 54.9257 56.2364 55.026C56.3359 55.1764 56.2861 55.3759 56.1866 55.4761C54.8956 56.3764 53.1567 56.8266 51.4675 56.8266Z" fill="#222222" stroke="#222222"/>
<path d="M43.0741 45.1172C42.9757 44.3158 43.4226 43.5656 44.0675 43.5155C44.7136 43.4152 45.3098 44.0159 45.4094 44.8163C45.5078 45.6177 45.0609 46.3678 44.416 46.418C43.77 46.5183 43.1737 45.9175 43.0741 45.1172Z" fill="#222222"/>
<path d="M65.4251 59.7801C65.3753 59.7801 65.2769 59.7801 65.2271 59.731C65.0778 59.6307 65.0778 59.4301 65.1773 59.2796C68.8024 54.9258 66.9152 51.1227 65.2271 48.6203C64.8787 48.1198 64.4815 47.6193 64.0346 47.0687C62.7436 45.467 61.3033 43.6156 60.0113 40.2115C59.4648 38.8605 59.1174 37.1596 58.7701 35.3572C57.925 31.203 57.0311 26.9495 54.051 27.45C53.9016 27.5001 53.7036 27.3497 53.7036 27.2003C53.6538 27.0498 53.8032 26.8492 53.9514 26.8492C57.5278 26.2484 58.4714 31.0536 59.3653 35.2569C59.7137 37.0593 60.0611 38.7101 60.5578 40.0119C61.8487 43.3146 63.2403 45.117 64.5313 46.6686C64.9782 47.2192 65.3753 47.7186 65.7238 48.219C66.7669 49.7706 70.0447 54.4253 65.674 59.6307C65.6242 59.731 65.5247 59.7801 65.4251 59.7801Z" fill="#222222" stroke="#222222"/>
<path d="M38.6532 60.9315C38.5536 60.9315 38.5038 60.8814 38.4054 60.8312C35.8721 57.8786 34.7294 56.1274 36.8655 49.1208C37.3622 47.4689 37.9585 46.4178 38.6034 45.2664C39.6963 43.3147 40.8888 41.1133 41.932 35.4074C42.9254 29.8521 44.5637 26.5494 46.7994 25.5485C48.0406 24.9978 49.4311 25.1985 50.9212 26.1493C51.0705 26.2485 51.1203 26.4491 51.0207 26.5996C50.9212 26.7489 50.7231 26.7991 50.5738 26.6988C49.2828 25.8483 48.0903 25.6989 47.0472 26.1493C45.0106 27.0499 43.4718 30.3024 42.5272 35.5579C41.484 41.363 40.2428 43.6156 39.1499 45.6175C38.5536 46.7177 37.9585 47.7688 37.4618 49.3705C35.4252 56.0773 36.4186 57.6289 38.8523 60.4812C38.9518 60.6317 38.9518 60.8312 38.8025 60.9315C38.769 60.9315 38.7192 60.9315 38.6532 60.9315Z" fill="#222222" stroke="#222222"/>
<path d="M34.0348 58.4291C33.985 58.4291 33.9352 58.4291 33.8855 58.3789C25.4417 53.8245 29.0181 44.9163 30.9053 40.1624L31.1033 39.6619C31.9485 37.5597 32.8921 34.8066 33.0414 31.904C33.0414 31.7536 33.1896 31.6042 33.339 31.6042C33.4883 31.6042 33.6366 31.7536 33.6366 31.904C33.4883 34.9069 32.4949 37.7091 31.6996 39.8614L31.5015 40.3619C29.663 44.9665 26.236 53.5247 34.183 57.8283C34.3324 57.9286 34.3821 58.0791 34.3324 58.2285C34.2328 58.3789 34.1333 58.4291 34.0348 58.4291Z" fill="#222222" stroke="#222222"/>
<path d="M70.5908 53.1747C70.5411 53.1747 70.4415 53.1747 70.3917 53.1246C70.2435 53.0243 70.2435 52.8236 70.342 52.6743C73.2734 48.87 73.571 41.0129 72.4781 37.2588C71.832 34.9571 70.6904 32.204 69.697 29.7016C69.1008 28.2503 68.5543 26.8994 68.1571 25.7981C68.0078 25.398 67.8585 24.9978 67.7102 24.5475C66.1704 20.1425 64.7301 15.9893 59.3162 15.6884C59.1669 15.6884 59.0176 15.539 59.0176 15.3384C59.0176 15.1879 59.1669 15.0385 59.3649 15.0385C65.177 15.3384 66.7666 19.8928 68.3065 24.2967C68.4547 24.6969 68.6041 25.0981 68.7534 25.5484C69.1505 26.6486 69.697 28.0006 70.2933 29.4519C71.2866 31.9543 72.4283 34.7565 73.1241 37.0593C74.2657 40.9126 73.9184 49.0706 70.8386 53.0243C70.7899 53.1246 70.6904 53.1747 70.5908 53.1747Z" fill="#222222" stroke="#222222"/>
<path d="M29.6626 44.2653C29.5631 44.2653 29.4646 44.2163 29.4148 44.116C25.6393 38.8103 28.0243 33.2059 29.3153 30.1529L29.4148 29.9021C29.812 28.9012 30.1096 27.7999 30.4082 26.5994C31.0045 24.2464 31.6494 21.7942 33.4382 19.8927C34.53 18.7412 35.6727 17.9409 37.1628 16.94C38.3553 16.1397 39.7458 15.1878 41.5335 13.7365C44.5136 11.3345 51.12 9.7829 54.8457 11.4849C56.5836 12.2853 57.5272 13.6864 57.577 15.589C57.577 15.7384 57.4774 15.8889 57.2794 15.8889C57.0803 15.8889 56.9807 15.7886 56.9309 15.589C56.8314 13.9371 56.0371 12.7356 54.547 12.0356C51.12 10.484 44.7127 11.9353 41.8819 14.237C40.0932 15.6883 38.7027 16.6401 37.4615 17.4405C36.0212 18.3912 34.9282 19.1927 33.8353 20.2928C32.1461 22.045 31.5499 24.4471 30.9547 26.6987C30.656 27.9002 30.3584 29.0516 29.9115 30.1027L29.812 30.3524C28.4712 33.4556 26.2853 38.6609 29.8617 43.6657C29.9613 43.815 29.9115 44.0157 29.812 44.116C29.812 44.2163 29.7124 44.2653 29.6626 44.2653Z" fill="#222222" stroke="#222222"/>
<path d="M61.7994 16.0395C61.7497 16.0395 61.6501 16.0395 61.6003 15.9894C61.451 15.8891 61.451 15.6884 61.5506 15.5391C62.4942 14.3876 62.7928 12.8361 62.3946 11.3848C61.9975 10.0339 61.1037 9.03292 59.8614 8.63276C59.7131 8.5826 59.6136 8.38198 59.6633 8.23151C59.7131 8.08213 59.9112 7.98182 60.0605 8.03197C61.5008 8.53245 62.5439 9.68386 62.9909 11.2343C63.4378 12.8862 63.0904 14.6384 62.0473 15.9392C61.9975 15.9894 61.8979 16.0395 61.7994 16.0395Z" fill="#222222" stroke="#222222"/>
<path d="M56.6833 13.5872C56.534 13.5872 56.4344 13.4869 56.3846 13.3865C56.3359 13.2361 56.4344 13.0365 56.5837 12.9864C58.6203 12.2853 59.763 10.134 59.6634 8.93245C59.6137 8.08198 59.117 7.38088 58.6701 6.68087C58.5705 6.5304 58.471 6.37993 58.3725 6.17931C58.2729 6.02993 58.3227 5.8293 58.4709 5.72899C58.6203 5.62977 58.8194 5.67993 58.9179 5.82931C59.0174 5.97977 59.117 6.13024 59.2165 6.27962C59.7132 7.03087 60.2597 7.83119 60.3095 8.83214C60.4079 10.4339 59.0174 12.7858 56.7828 13.537C56.7828 13.5872 56.7331 13.5872 56.6833 13.5872Z" fill="#222222" stroke="#222222"/>
<path d="M50.8722 10.0339C47.0967 10.0339 42.0302 7.78123 40.5402 4.42839C40.4904 4.27792 40.5402 4.07838 40.6895 4.02823C40.8388 3.97807 41.0368 4.02822 41.0866 4.1776C42.6763 7.68091 48.7859 10.0339 52.3623 9.28264C53.4044 9.08311 54.7462 8.58263 55.3425 7.68091C55.64 7.23059 55.6898 6.68106 55.5405 6.03012C55.4907 5.87965 55.5903 5.68011 55.7894 5.62996C55.9376 5.5798 56.1367 5.68011 56.1865 5.87965C56.3845 6.68106 56.2861 7.43122 55.8889 8.03201C55.1931 9.13326 53.6533 9.68389 52.5105 9.93358C51.9641 9.98374 51.4187 10.0339 50.8722 10.0339Z" fill="#222222" stroke="#222222"/>
<path d="M48.9352 9.7826C48.8854 9.7826 48.7858 9.7826 48.7361 9.73245C47.6431 8.88197 47.0469 7.78071 47.0469 6.58023C47.0469 5.27835 47.7924 3.97756 49.0834 3.07693C51.4186 1.42504 55.0437 1.42504 57.1301 3.07693C57.2794 3.17615 57.2794 3.37677 57.1798 3.52724C57.0803 3.67771 56.8812 3.67771 56.7329 3.5774C54.7959 2.07598 51.5171 2.07598 49.4308 3.5774C48.3389 4.37772 47.6929 5.47898 47.6431 6.58023C47.6431 7.58118 48.1398 8.53197 49.0834 9.23198C49.2327 9.33229 49.2328 9.53291 49.1332 9.68338C49.1332 9.7826 49.0336 9.7826 48.9352 9.7826Z" fill="#222222" stroke="#222222"/>
<path d="M38.7527 16.389C38.7029 16.389 38.6034 16.389 38.5536 16.3389C35.5237 13.9368 36.965 9.38243 37.2626 8.48179C38.6532 4.62848 41.7329 2.32565 45.7064 2.22534C45.8557 2.22534 46.004 2.37581 46.004 2.52628C46.004 2.67566 45.8557 2.82613 45.7064 2.82613C41.9807 2.92644 39.1498 5.0788 37.8091 8.68133C37.61 9.1818 36.1199 13.637 38.902 15.8384C39.0503 15.9387 39.0503 16.1394 38.9518 16.2887C38.902 16.3389 38.8523 16.389 38.7527 16.389Z" fill="#222222" stroke="#222222"/>
<path d="M45.2591 8.63263C45.2093 8.63263 45.1098 8.63263 45.06 8.58247C44.3653 8.03184 44.1164 6.37995 44.1662 5.72901C44.3155 4.17744 45.3587 2.17664 47.0468 1.37523C48.0402 0.924914 49.6298 0.625066 51.7161 2.02617C51.8655 2.12648 51.9152 2.32602 51.8157 2.47649C51.7161 2.62696 51.517 2.67602 51.3687 2.5768C49.8787 1.57585 48.5369 1.37523 47.2957 1.97601C45.8056 2.67602 44.9118 4.47838 44.7624 5.82933C44.7126 6.48027 44.9615 7.78106 45.4084 8.13215C45.5567 8.23138 45.5567 8.432 45.4582 8.58247C45.4084 8.58247 45.3587 8.63263 45.2591 8.63263Z" fill="#222222" stroke="#222222"/>
<path d="M52.9573 24.3467H52.9075C52.7592 24.2966 52.6099 24.1472 52.6597 23.9967C53.1066 21.8444 54.5967 19.2417 56.5834 17.1897C56.683 17.0904 56.881 17.0904 57.0303 17.1897C57.1299 17.29 57.1299 17.4906 57.0303 17.6411C55.1431 19.5928 53.7028 22.0952 53.2559 24.1472C53.2559 24.2464 53.1066 24.3467 52.9573 24.3467Z" fill="#222222" stroke="#222222"/>
<path d="M56.2863 44.3155C56.1868 43.5152 56.6337 42.7639 57.2797 42.7149C57.9247 42.6146 58.5209 43.2153 58.6205 44.0157C58.72 44.816 58.2731 45.5672 57.6271 45.6174C56.9313 45.7177 56.3361 45.1169 56.2863 44.3155Z" fill="#222222"/>
<path d="M15.9551 40.812C15.756 40.812 15.6564 40.6626 15.6564 40.5122C15.6564 40.2614 15.6564 39.8111 15.6564 39.4109C15.6564 38.9606 15.6077 38.5103 15.6564 38.2595C15.6564 38.1101 15.8057 37.9597 15.9551 37.9597C16.1044 37.9597 16.2527 38.1101 16.2527 38.2595C16.2527 38.5103 16.2527 38.9606 16.2527 39.3608C16.2527 39.8111 16.3024 40.2614 16.2527 40.5122C16.2527 40.6626 16.1531 40.812 15.9551 40.812Z" fill="#222222"/>
<path d="M13.2717 41.9125C13.1235 41.9125 12.9741 41.8123 12.9741 41.6632C12.9243 41.5131 13.0737 41.3128 13.2219 41.3128C13.2717 41.3128 13.5704 41.2628 14.6633 41.3128C14.8116 41.3128 14.9609 41.463 14.9609 41.6132C14.9609 41.7623 14.8116 41.9125 14.6633 41.9125C13.5704 41.8624 13.3215 41.9125 13.2717 41.9125Z" fill="#222222"/>
<path d="M16.2027 45.3667C16.1043 45.3667 15.9549 45.3166 15.9052 45.1672C15.6076 44.5664 15.6563 43.065 15.6563 42.9145C15.6563 42.7641 15.8056 42.6147 15.9549 42.6147C16.1043 42.6147 16.2525 42.7641 16.2525 42.9145C16.2525 43.4652 16.2525 44.5163 16.4019 44.8663C16.4516 45.0167 16.4019 45.2163 16.2525 45.2664C16.3023 45.3166 16.2525 45.3667 16.2027 45.3667Z" fill="#222222"/>
<path d="M18.935 41.8129L17.196 41.7628C17.0478 41.7628 16.8984 41.6135 16.8984 41.4631C16.8984 41.3126 17.0478 41.1622 17.196 41.1622L18.935 41.2124V41.8129Z" fill="#222222"/>
<path d="M85.8889 32.5551C85.6909 32.5551 85.5913 32.4047 85.5913 32.2542C85.5913 32.0547 85.5913 31.6044 85.5913 31.2031C85.5913 30.8029 85.5913 30.3526 85.5913 30.1029C85.5913 29.9525 85.7396 29.802 85.8889 29.802C86.0382 29.802 86.1876 29.9525 86.1876 30.1029C86.1876 30.3025 86.1876 30.7528 86.1876 31.154C86.1876 31.5542 86.1876 32.0045 86.1876 32.2051C86.1876 32.4047 86.088 32.5551 85.8889 32.5551Z" fill="#222222"/>
<path d="M83.405 33.555C83.2557 33.555 83.1074 33.4549 83.1074 33.3047C83.0576 33.1556 83.207 32.9554 83.3552 32.9554C83.405 32.9554 83.6539 32.9054 84.696 32.9554C84.8453 32.9554 84.9946 33.1056 84.9946 33.2547C84.9946 33.4049 84.8951 33.555 84.696 33.555C83.7037 33.505 83.4548 33.555 83.405 33.555Z" fill="#222222"/>
<path d="M86.1375 36.7584C86.0379 36.7584 85.8886 36.7093 85.8388 36.5588C85.591 36.0082 85.6408 34.6071 85.6408 34.4566C85.6408 34.3062 85.7891 34.1568 85.9384 34.1568C86.0877 34.1568 86.236 34.3062 86.236 34.4566C86.236 35.0073 86.236 35.9581 86.3853 36.3081C86.4351 36.4585 86.3853 36.6592 86.236 36.7093C86.1873 36.7584 86.1873 36.7584 86.1375 36.7584Z" fill="#222222"/>
<path d="M88.671 33.5056L87.0814 33.4555C86.932 33.4555 86.7827 33.3051 86.7827 33.1557C86.7827 33.0053 86.932 32.8549 87.0814 32.8549L88.671 32.9051V33.5056Z" fill="#222222"/>
<path d="M22.7594 27.2003C22.1967 27.1 21.7335 26.7827 21.3688 26.2484C21.0042 25.6814 20.7726 24.8648 20.6731 23.7962C20.6406 24.8648 20.4415 25.6814 20.0779 26.2484C19.7132 26.8165 19.1667 27.1 18.4385 27.1C19.1007 27.1992 19.6137 27.5165 19.9783 28.0508C20.3419 28.5839 20.5573 29.4181 20.6244 30.5531C20.6904 29.5522 20.9057 28.7846 21.2693 28.2503C21.634 27.6833 22.1307 27.3333 22.7594 27.2003Z" fill="#222222"/>
<path d="M78.0404 23.9466C77.5762 23.8801 77.2126 23.6293 76.9474 23.1953C76.6823 22.7625 76.5005 22.1115 76.401 21.2436C76.3685 22.0777 76.2192 22.7287 75.9541 23.1953C75.6565 23.6293 75.2258 23.8626 74.6631 23.8964C75.1922 23.9629 75.5905 24.2137 75.8545 24.6477C76.1532 25.0805 76.3187 25.7315 76.3512 26.5994C76.4183 25.798 76.5828 25.1983 76.8479 24.7971C77.113 24.3304 77.5101 24.0469 78.0404 23.9466Z" fill="#222222"/>
<path d="M82.5113 44.9166C81.9486 44.8163 81.4844 44.5001 81.1208 43.9658C80.7561 43.3988 80.5245 42.5811 80.425 41.5136C80.3925 42.5811 80.1934 43.3825 79.8287 43.9157C79.4652 44.4826 78.9187 44.7661 78.1904 44.7661C78.8527 44.8665 79.3494 45.1837 79.6805 45.718C80.0441 46.2512 80.2594 47.069 80.3254 48.1702C80.3915 47.1693 80.6068 46.4017 80.9715 45.8674C81.3361 45.3669 81.8491 45.0507 82.5113 44.9166Z" fill="#222222"/>
</svg>
