<svg width="155" height="175" viewBox="0 0 155 175" fill="none" xmlns="http://www.w3.org/2000/svg">
<path d="M58.5087 46.0135C58.3209 46.0135 58.1523 45.8849 58.1077 45.695C58.0054 45.254 57.8946 44.7973 57.7814 44.3322C56.9589 40.9288 56.0257 37.0723 57.0926 34.9524C57.9403 33.2675 59.1277 32.4443 60.2764 31.6475C61.0435 31.1151 61.7684 30.6128 62.3729 29.8677C63.9311 27.9473 65.1895 23.943 64.7788 22.2172C64.5561 21.2847 64.1828 21.2294 63.6662 21.1513C63.2941 21.0948 62.8305 21.0251 62.5042 20.5888C62.356 20.3917 62.238 20.2031 62.1236 20.0216C61.7937 19.4916 61.5553 19.1094 60.6835 18.8126C60.3957 18.7141 60.0826 18.7585 59.7189 18.809C59.3023 18.8667 58.829 18.9328 58.3377 18.7657C57.9235 18.6251 57.6899 18.4437 57.4828 18.2838C57.2467 18.1012 57.0601 17.9569 56.5616 17.868C55.7885 17.7298 54.3025 18.1156 53.7956 18.2754C53.5788 18.3439 53.3464 18.2237 53.279 18.0074C53.2103 17.7911 53.3296 17.5592 53.5463 17.4907C53.6294 17.4654 55.5717 16.8561 56.7061 17.058C57.4045 17.1818 57.714 17.4222 57.9885 17.6337C58.1667 17.7707 58.3209 17.8908 58.605 17.987C58.9097 18.0903 59.2469 18.0447 59.6057 17.9942C60.0139 17.9377 60.4775 17.8728 60.9496 18.0339C62.0996 18.4256 62.468 19.0157 62.8245 19.5866C62.9256 19.7488 63.0316 19.9194 63.1641 20.0961C63.2833 20.2547 63.4603 20.2884 63.7902 20.3377C64.3634 20.4242 65.2292 20.554 65.5808 22.0261C66.0962 24.1881 64.6006 28.4304 63.0135 30.3857C62.3356 31.2209 61.5276 31.7809 60.7473 32.3229C59.6346 33.0945 58.5834 33.8239 57.8296 35.3213C56.8987 37.1721 57.7934 40.8735 58.5834 44.1387C58.6966 44.6062 58.8074 45.0653 58.9109 45.5088C58.9627 45.7311 58.8242 45.9522 58.6026 46.0027C58.5713 46.0099 58.54 46.0135 58.5087 46.0135Z" fill="#332E3C" stroke="#222222"/>
<path d="M49.2968 52.2543C49.1125 52.2543 48.9439 52.1293 48.897 51.9418C48.449 50.1284 48.089 47.3703 47.9035 45.3946C47.7939 44.2397 47.623 42.7327 47.4255 40.9877C47.2533 39.4771 47.0642 37.8162 46.8872 36.1241C46.8198 35.4812 46.7535 34.9115 46.6921 34.396C46.4561 32.389 46.3128 31.1764 46.5946 29.4987C46.7921 28.3246 47.535 27.1781 48.396 25.8502C49.1306 24.7157 49.9639 23.431 50.6274 21.8711C50.985 21.0299 51.1139 20.3328 50.9718 20.0036C50.9308 19.9086 50.8694 19.8509 50.7683 19.8137C50.5599 19.7368 50.2613 19.6767 49.9458 19.613C48.9801 19.4183 47.6579 19.1515 47.8132 17.9846C47.8421 17.7767 47.9541 17.4786 48.3334 17.2491C49.4111 16.5941 52.0832 16.885 53.4499 17.3741C55.025 17.9353 55.8342 19.5264 56.2232 20.2908C56.2701 20.3821 56.3111 20.4626 56.3472 20.5275C56.4568 20.727 56.3821 20.977 56.1822 21.0863C55.9835 21.1945 55.7331 21.1224 55.6235 20.9217C55.5849 20.8508 55.5404 20.7631 55.4886 20.6633C55.1213 19.9423 54.4374 18.5999 53.173 18.148C51.8701 17.6829 49.4978 17.5039 48.7621 17.9509C48.6814 18.0002 48.6369 18.0483 48.6308 18.0939C48.5803 18.4677 49.2414 18.6311 50.1096 18.8066C50.4576 18.8763 50.7863 18.9436 51.0548 19.0421C51.3655 19.1575 51.5991 19.3774 51.7292 19.6779C51.9712 20.2403 51.8568 21.0863 51.386 22.1932C50.6948 23.818 49.841 25.1351 49.0884 26.2972C48.2768 27.5483 47.5772 28.6287 47.4086 29.6345C47.1461 31.1969 47.2834 32.365 47.511 34.301C47.5724 34.819 47.6398 35.391 47.7072 36.0388C47.8843 37.7285 48.0733 39.3857 48.2443 40.8939C48.443 42.6437 48.614 44.1544 48.7248 45.3177C48.9078 47.2633 49.2594 49.9745 49.6977 51.7447C49.7519 51.9647 49.6171 52.1882 49.3967 52.2423C49.363 52.2507 49.3305 52.2543 49.2968 52.2543Z" fill="#332E3C" stroke="#222222"/>
<path d="M115.977 89.5586C115.945 89.5586 115.915 89.555 115.884 89.5478C115.089 89.3675 111.922 89.3519 107.912 89.3327C100.126 89.2942 88.3577 89.2353 78.044 88.048L76.0559 87.8208C70.0121 87.1346 64.3044 86.4881 60.8195 85.2587C57.9078 84.2324 57.207 82.7734 56.2388 80.7544C53.8028 75.6782 47.7445 56.4053 47.8204 53.9717C47.8421 53.2254 48.5887 52.2917 49.1872 51.5418C49.3401 51.3495 49.4762 51.18 49.5701 51.0466C50.938 49.1166 52.9213 47.2899 54.6252 46.3934C56.2797 45.5233 58.4617 44.9561 59.6021 45.6543C60.4402 46.1662 61.0748 47.6925 62.0357 50.0035C62.6221 51.4144 63.3531 53.1714 64.2971 55.075C65.4832 57.4665 66.8452 59.8749 68.1625 62.2027C69.4558 64.4897 70.6781 66.6492 71.4692 68.357C71.5655 68.5625 71.4752 68.8076 71.2681 68.9026C71.061 68.9975 70.8165 68.9086 70.7214 68.7019C69.9435 67.0242 68.7297 64.879 67.4448 62.6077C66.1215 60.269 64.7535 57.8511 63.5578 55.4391C62.6017 53.5115 61.8659 51.7413 61.2747 50.3184C60.4402 48.3126 59.7803 46.7287 59.1722 46.3561C58.4569 45.9187 56.6675 46.248 55.0105 47.1216C53.4126 47.9617 51.5413 49.6886 50.2444 51.5213C50.1421 51.6656 49.9964 51.8482 49.8326 52.0537C49.3931 52.6041 48.6585 53.5235 48.6441 53.997C48.5802 56.0688 54.4325 75.0857 56.9818 80.3987C57.9307 82.3756 58.5039 83.569 61.094 84.4823C64.4898 85.6805 70.153 86.3234 76.1498 87.0036L78.1391 87.2296C88.4071 88.4133 100.148 88.471 107.916 88.5095C112.292 88.5311 115.183 88.5443 116.067 88.7462C116.29 88.7955 116.428 89.0166 116.378 89.2377C116.334 89.4288 116.165 89.5586 115.977 89.5586Z" fill="#332E3C" stroke="#222222"/>
<path d="M51.3635 65.7829C51.3117 65.7829 51.2587 65.7733 51.2081 65.7528C50.9974 65.6675 50.8962 65.4272 50.9817 65.2168C52.281 62.0346 56.6257 57.3152 61.4039 56.7299C61.6339 56.7047 61.8362 56.8633 61.8639 57.0881C61.8915 57.314 61.7302 57.5195 61.505 57.5471C57.0399 58.0927 52.9674 62.5321 51.7452 65.5269C51.6802 65.6867 51.526 65.7829 51.3635 65.7829Z" fill="#332E3C" stroke="#222222"/>
<path d="M122.702 145.105C114.925 145.105 105.788 143.27 104.255 141.398C102.77 139.588 102.443 137.618 101.712 132.187C101.101 127.655 100.167 123.57 98.5881 118.529C97.6657 115.583 96.5422 112.778 95.3537 109.809C93.1633 104.339 90.8983 98.685 89.499 91.252C89.4569 91.0285 89.6038 90.8134 89.8277 90.7713C90.0529 90.7281 90.2673 90.8759 90.3094 91.0994C91.6942 98.4542 93.9436 104.071 96.1196 109.503C97.3153 112.489 98.4436 115.307 99.3756 118.283C100.969 123.372 101.912 127.496 102.528 132.077C103.236 137.336 103.549 139.239 104.893 140.878C106.123 142.378 114.754 144.281 122.702 144.281C130.812 144.281 146.55 140.955 146.908 135.738C147.037 133.866 146.879 130.445 146.052 126.462C145.175 122.246 143.616 116.254 142.107 110.459C140.794 105.417 139.555 100.655 138.714 96.9112C135.889 84.3418 133.264 77.1036 129.027 70.2018C124.539 62.889 117.768 62.4107 107.589 64.0523C103.755 64.6712 99.5852 65.4752 95.5524 66.2528C87.0064 67.8992 78.9348 69.4579 73.7857 69.3966C73.5581 69.3942 73.3751 69.2079 73.3787 68.9808C73.3811 68.7525 73.5882 68.589 73.7954 68.5734C78.8601 68.6335 86.892 67.0832 95.3958 65.444C99.4346 64.6664 103.611 63.8612 107.458 63.2399C121.294 61.0058 126.238 64.0836 129.73 69.7716C134.019 76.7587 136.671 84.0654 139.518 96.7309C140.356 100.461 141.594 105.217 142.905 110.252C144.417 116.057 145.978 122.058 146.859 126.294C147.704 130.36 147.863 133.868 147.73 135.794C147.289 142.242 129.419 145.105 122.702 145.105Z" fill="#332E3C" stroke="#222222"/>
<path d="M102.041 170.701C101.814 170.701 101.63 170.517 101.63 170.29C101.63 158.072 102.59 147.522 103.539 143.416C103.591 143.195 103.813 143.054 104.034 143.107C104.256 143.159 104.394 143.379 104.343 143.601C103.404 147.662 102.453 158.133 102.453 170.29C102.453 170.517 102.269 170.701 102.041 170.701Z" fill="#332E3C" stroke="#222222"/>
<path d="M128.044 174C127.88 174 127.726 173.904 127.661 173.743C123.016 162.258 122.869 162.106 119.123 158.187L118.427 157.459C118.271 157.293 118.278 157.033 118.443 156.877C118.608 156.719 118.868 156.727 119.026 156.891L119.719 157.618C123.496 161.569 123.721 161.804 128.425 173.435C128.511 173.645 128.409 173.884 128.198 173.97C128.147 173.99 128.094 174 128.044 174Z" fill="#332E3C" stroke="#222222"/>
<path d="M114.36 144.428C114.228 144.428 114.099 144.366 114.019 144.249C112.023 141.338 111.861 138.424 111.705 135.607C111.612 133.933 111.516 132.2 111.039 130.456C110.339 127.898 108.862 124.312 107.432 120.845C106.452 118.469 105.44 116.012 104.699 113.931C101.87 105.993 99.7318 98.7644 98.4867 89.2896C98.4578 89.0637 98.6167 88.857 98.8419 88.8282C99.0683 88.7945 99.2754 88.9567 99.3043 89.1815C100.54 98.5853 102.665 105.766 105.476 113.656C106.21 115.717 107.219 118.165 108.195 120.531C109.634 124.022 111.122 127.632 111.835 130.24C112.333 132.068 112.432 133.844 112.527 135.561C112.685 138.39 112.833 141.063 114.7 143.785C114.829 143.973 114.78 144.229 114.593 144.357C114.521 144.405 114.44 144.428 114.36 144.428Z" fill="#332E3C" stroke="#222222"/>
<path d="M124.862 86.2898C124.78 86.2898 124.699 86.2657 124.626 86.2153C124.44 86.0855 124.395 85.8283 124.525 85.642C127.2 81.8288 126.707 74.3406 124.885 69.2306C124.808 69.0167 124.92 68.7812 125.134 68.7054C125.349 68.6273 125.585 68.7403 125.662 68.9542C127.552 74.2588 128.034 82.0752 125.201 86.1143C125.121 86.2285 124.992 86.2898 124.862 86.2898Z" fill="#332E3C" stroke="#222222"/>
<path d="M113.338 51.0152C112.78 51.0152 112.217 50.9275 111.662 50.752C111.445 50.6835 111.325 50.4528 111.393 50.2365C111.462 50.0202 111.693 49.8988 111.911 49.9685C113.51 50.4744 114.783 50.0466 115.57 49.5983C116.717 48.9446 117.571 47.8245 117.854 46.5999C118.059 45.7094 117.88 44.9751 117.348 44.5317C116.711 44.0017 115.669 43.9488 114.629 44.3971C114.419 44.486 114.177 44.3899 114.087 44.182C113.997 43.9728 114.093 43.7313 114.302 43.6412C115.628 43.0691 116.999 43.1689 117.876 43.9007C118.648 44.5425 118.933 45.594 118.657 46.785C118.323 48.2283 117.323 49.5479 115.979 50.3122C115.161 50.7785 114.258 51.0152 113.338 51.0152Z" fill="#332E3C" stroke="#222222"/>
<path d="M114.084 47.7536C113.961 47.7536 113.839 47.6995 113.758 47.595C113.619 47.4159 113.65 47.1575 113.831 47.0169C114.632 46.3956 115.451 46.4365 115.484 46.4353C115.712 46.4485 115.887 46.642 115.873 46.8691C115.861 47.0962 115.667 47.2657 115.439 47.2573C115.416 47.2525 114.885 47.2416 114.337 47.6671C114.262 47.726 114.173 47.7536 114.084 47.7536Z" fill="#332E3C" stroke="#222222"/>
<path d="M117.108 55.3562C117.033 55.3562 116.958 55.3357 116.89 55.2937C115.309 54.3082 114.425 52.9767 114.024 50.9757C113.98 50.7534 114.124 50.5359 114.348 50.4914C114.57 50.4469 114.789 50.5923 114.833 50.8147C115.186 52.5741 115.954 53.7398 117.326 54.5954C117.52 54.7156 117.578 54.9692 117.457 55.1627C117.379 55.2877 117.245 55.3562 117.108 55.3562Z" fill="#332E3C" stroke="#222222"/>
<path d="M121.433 63.9896C121.327 63.9896 121.222 63.9487 121.141 63.8694C119.918 62.6472 119.151 60.6427 118.728 57.5589C118.697 57.3342 118.855 57.1263 119.081 57.0962C119.305 57.0662 119.513 57.2224 119.545 57.4483C119.936 60.3038 120.65 62.2146 121.724 63.2866C121.886 63.4476 121.886 63.7084 121.724 63.8694C121.644 63.9487 121.539 63.9896 121.433 63.9896Z" fill="#332E3C" stroke="#222222"/>
<path d="M102.649 64.6569C102.466 64.6569 102.298 64.5331 102.25 64.348C102.182 64.0848 102.115 63.7928 102.047 63.4851C101.667 61.7954 101.195 59.6935 99.4697 59.1768C98.4859 58.8823 97.5021 58.6841 96.5496 58.493C95.2587 58.2334 94.0377 57.9882 92.8179 57.5232C90.725 56.7264 90.1855 55.0811 91.12 52.3459C91.1934 52.1308 91.4282 52.0166 91.6438 52.0887C91.8593 52.162 91.9749 52.3964 91.9015 52.6115C90.9213 55.4753 91.9039 56.2949 93.1117 56.7552C94.2677 57.1951 95.455 57.4342 96.7134 57.6866C97.6827 57.8813 98.687 58.0832 99.7057 58.3884C101.894 59.0434 102.448 61.5058 102.851 63.3049C102.918 63.6029 102.981 63.8853 103.049 64.1413C103.105 64.3612 102.974 64.586 102.754 64.6424C102.719 64.6521 102.684 64.6569 102.649 64.6569Z" fill="#332E3C" stroke="#222222"/>
<path d="M92.5487 45.2298C92.4571 45.2298 92.3656 45.1998 92.2898 45.1385C91.9225 44.8417 90.8628 43.4344 91.6311 42.2903C91.9478 41.8204 92.4872 41.7219 93.0087 41.6269C93.801 41.4815 94.6198 41.3313 95.2003 40.0466C95.2942 39.8399 95.5374 39.7462 95.7457 39.8411C95.9541 39.9336 96.0456 40.1776 95.9517 40.3855C95.1942 42.0632 93.9684 42.2879 93.1568 42.4357C92.7112 42.5174 92.4331 42.5763 92.3163 42.7494C91.8888 43.3851 92.6474 44.3694 92.8076 44.498C92.9846 44.641 93.0123 44.9006 92.8702 45.0772C92.7883 45.1782 92.6691 45.2298 92.5487 45.2298Z" fill="#332E3C" stroke="#222222"/>
<path d="M97.7852 34.8578C97.7443 34.8578 97.7022 34.8518 97.6612 34.8386C97.4433 34.7701 97.324 34.5393 97.3927 34.3218C97.996 32.4218 100.452 29.2191 102.085 28.2036C102.278 28.0846 102.533 28.1423 102.654 28.3358C102.774 28.5281 102.715 28.7817 102.521 28.9018C101.07 29.8044 98.7161 32.8773 98.1778 34.5706C98.1224 34.746 97.9598 34.8578 97.7852 34.8578Z" fill="#332E3C" stroke="#222222"/>
<path d="M94.9892 50.4999C94.9085 50.4999 94.8266 50.4771 94.7556 50.4266C93.9127 49.845 93.2311 49.5157 92.4749 49.327C92.2533 49.2717 92.1197 49.0482 92.175 48.8283C92.2304 48.6083 92.4544 48.4737 92.6748 48.529C93.5334 48.7441 94.2956 49.1083 95.224 49.75C95.4119 49.8798 95.4588 50.1358 95.3288 50.3233C95.2493 50.4386 95.1205 50.4999 94.9892 50.4999Z" fill="#332E3C" stroke="#222222"/>
<path d="M97.6711 39.6418C97.9108 39.0385 98.4864 38.7008 98.956 38.8859C99.4244 39.0734 99.6098 39.7127 99.369 40.3172C99.1282 40.9205 98.5526 41.2594 98.0842 41.0731C97.6145 40.8868 97.4303 40.2463 97.6711 39.6418Z" fill="#332E3C"/>
<path d="M101.303 37.8823C101.195 37.8823 101.088 37.8414 101.008 37.7585C100.386 37.1252 99.5204 36.6601 98.633 36.4834C98.409 36.439 98.2645 36.2214 98.309 35.9991C98.3536 35.7768 98.5703 35.6302 98.7943 35.6758C99.8407 35.8849 100.863 36.4341 101.596 37.184C101.757 37.3463 101.753 37.6071 101.59 37.7657C101.51 37.8438 101.406 37.8823 101.303 37.8823Z" fill="#332E3C" stroke="#222222"/>
<path d="M105.093 28.9135C104.943 28.9135 104.797 28.8306 104.725 28.6864C104.622 28.4833 104.705 28.2357 104.909 28.1335C106.247 27.4666 107.475 27.4377 108.774 28.0446C108.98 28.142 109.069 28.3859 108.973 28.5926C108.875 28.7981 108.63 28.8859 108.424 28.7897C107.344 28.2838 106.402 28.3078 105.277 28.8702C105.218 28.9003 105.156 28.9135 105.093 28.9135Z" fill="#332E3C" stroke="#222222"/>
<path d="M111.007 43.669C110.927 43.669 110.847 43.6462 110.776 43.5981C108.126 41.8003 108.317 38.6889 108.47 36.1892C108.512 35.4994 108.552 34.8468 108.525 34.2976L108.521 34.1943C108.474 33.1631 108.401 31.6032 107.06 30.6983C106.871 30.5709 106.822 30.3149 106.949 30.1263C107.077 29.9388 107.332 29.8895 107.521 30.0157C109.206 31.1526 109.293 33.0333 109.344 34.157L109.349 34.258C109.378 34.8528 109.337 35.5258 109.293 36.2397C109.146 38.6504 108.977 41.3821 111.24 42.9179C111.428 43.0453 111.477 43.3013 111.348 43.4888C111.269 43.6065 111.139 43.669 111.007 43.669Z" fill="#332E3C" stroke="#222222"/>
<path d="M100.571 29.9927C100.453 29.9927 100.336 29.9434 100.254 29.8449C98.55 27.8079 100.439 25.2289 101.059 24.4862C101.205 24.3119 101.465 24.2879 101.64 24.4333C101.815 24.5787 101.839 24.8383 101.693 25.0126C101.176 25.6315 99.5916 27.7694 100.886 29.3185C101.033 29.4928 101.009 29.7523 100.834 29.8978C100.757 29.9615 100.663 29.9927 100.571 29.9927Z" fill="#332E3C" stroke="#222222"/>
<path d="M118.865 24.3602C118.811 24.3602 118.754 24.3494 118.701 24.3265C116.372 23.3146 113.64 23.43 112.008 23.5009L111.615 23.5165C110.835 23.5454 110.044 23.6451 109.278 23.7413C108.344 23.859 107.379 23.9804 106.403 23.9804C106.24 23.9804 106.071 23.984 105.897 23.9864C104.679 24.0093 103.16 24.0345 102.183 23.0599C102.022 22.8988 102.022 22.638 102.183 22.4782C102.345 22.3172 102.605 22.3172 102.766 22.4782C103.495 23.2053 104.763 23.1812 105.883 23.1644C106.062 23.1608 106.236 23.1584 106.403 23.1584C107.328 23.1584 108.267 23.0394 109.175 22.9253C109.959 22.8267 110.769 22.7246 111.584 22.6945L111.972 22.6789C113.675 22.6056 116.526 22.4842 119.03 23.5718C119.238 23.6619 119.335 23.9047 119.243 24.1126C119.176 24.2676 119.024 24.3602 118.865 24.3602Z" fill="#332E3C" stroke="#222222"/>
<path d="M130.355 34.943C130.145 34.943 129.966 34.7831 129.945 34.5704C129.587 30.8185 126.364 27.4151 121.735 25.8996C121.52 25.8287 121.402 25.5968 121.473 25.3805C121.544 25.1641 121.776 25.0452 121.993 25.1173C126.933 26.7349 130.377 30.4147 130.766 34.4923C130.788 34.7182 130.621 34.9189 130.395 34.9406C130.381 34.9418 130.368 34.943 130.355 34.943Z" fill="#332E3C" stroke="#222222"/>
<path d="M130.738 36.9653C130.585 36.9653 130.438 36.8812 130.367 36.7358C130.267 36.5327 130.349 36.2875 130.551 36.1866C130.584 36.1698 131.363 35.7888 132.376 35.9811C132.6 36.0231 132.746 36.2395 132.704 36.4618C132.661 36.6853 132.444 36.8307 132.221 36.7899C131.493 36.6505 130.923 36.9209 130.917 36.9233C130.86 36.9521 130.798 36.9653 130.738 36.9653Z" fill="#332E3C" stroke="#222222"/>
<path d="M120.723 55.516C120.579 55.516 120.438 55.4403 120.362 55.3045C120.251 55.1062 120.324 54.855 120.522 54.7445C124.404 52.5933 130.828 47.6961 130.24 39.0698C130.224 38.8438 130.395 38.6468 130.623 38.6323C130.847 38.6167 131.047 38.7874 131.062 39.0145C131.681 48.0939 124.975 53.2182 120.923 55.4644C120.859 55.4992 120.791 55.516 120.723 55.516Z" fill="#332E3C" stroke="#222222"/>
<path d="M74.8881 62.2745C74.8568 62.2745 74.8255 62.2709 74.7954 62.2637C74.5726 62.2132 74.4341 61.9921 74.4859 61.771C75.1614 58.8459 78.45 49.0538 79.547 47.6838C80.2756 46.7753 81.8916 46.2333 83.4546 45.7093C84.3095 45.4221 85.1163 45.1517 85.6474 44.8573C86.9575 44.1314 87.3284 43.5654 88.0666 42.4369C88.1725 42.2747 88.2845 42.1028 88.4073 41.9201C88.9011 41.181 88.9781 40.4131 89.0757 39.4421C89.101 39.1837 89.1287 38.9157 89.1648 38.6369C89.2117 38.2716 89.2996 37.8882 89.3851 37.5168C89.6344 36.4352 89.7657 35.707 89.3273 35.4582C89.2406 35.4089 89.0949 35.3549 88.8384 35.4414C88.1942 35.6601 87.4524 36.5819 87.2236 37.1203C87.0707 37.4796 86.9828 37.8581 86.8985 38.2235C86.7263 38.9638 86.5481 39.7305 85.8376 40.2701C85.427 40.5814 84.837 40.7592 84.088 40.9828C82.9729 41.3168 81.5857 41.7327 80.2057 42.7782C80.0239 42.9164 79.7662 42.8803 79.6277 42.7001C79.4904 42.5186 79.5254 42.2602 79.7072 42.1232C81.2052 40.9876 82.7345 40.5297 83.852 40.1944C84.4926 40.0033 85.0465 39.8363 85.3379 39.6163C85.8111 39.2558 85.9364 38.7186 86.0953 38.0372C86.1881 37.6382 86.2844 37.2248 86.4638 36.7994C86.748 36.13 87.6138 34.9883 88.5723 34.6626C88.9878 34.5208 89.3888 34.5497 89.7331 34.742C90.7398 35.3116 90.4472 36.5807 90.1895 37.7019C90.1076 38.0528 90.0246 38.417 89.9824 38.7414C89.9475 39.013 89.921 39.2726 89.8957 39.5238C89.7958 40.5225 89.7006 41.4659 89.0925 42.3768C88.9721 42.5571 88.8613 42.7265 88.7566 42.8864C87.9955 44.0497 87.5367 44.7515 86.0472 45.5771C85.4511 45.9076 84.6094 46.19 83.7171 46.4893C82.3347 46.9532 80.7681 47.4783 80.1913 48.1982C79.2568 49.3639 75.9911 58.9228 75.2891 61.9549C75.2457 62.1459 75.0747 62.2745 74.8881 62.2745Z" fill="#332E3C" stroke="#222222"/>
<path d="M65.2921 56.6036C65.2307 56.6036 65.1681 56.5904 65.1079 56.5604C64.9044 56.4594 64.8225 56.2118 64.9236 56.0087C65.2632 55.3309 66.7239 52.7099 68.27 49.9338C70.0329 46.7719 71.8549 43.5007 72.2197 42.7472C73.0542 41.0275 73.4829 39.518 73.9357 37.9197C74.2512 36.8092 74.5763 35.6627 75.0544 34.3913C75.1338 34.1786 75.3722 34.0704 75.5842 34.1509C75.7973 34.2302 75.9057 34.4682 75.8262 34.6809C75.3602 35.9187 75.0399 37.0496 74.7292 38.1432C74.2656 39.7776 73.8285 41.3207 72.9627 43.1053C72.587 43.8805 70.7591 47.1613 68.9913 50.334C67.4488 53.1017 65.9929 55.7155 65.6618 56.3765C65.5895 56.5207 65.4438 56.6036 65.2921 56.6036Z" fill="#332E3C" stroke="#222222"/>
<path d="M89.6065 33.6619C89.474 33.6619 89.3367 33.6439 89.1958 33.6067C88.3023 33.3723 87.4618 32.4734 87.3197 31.6021C87.2836 31.3774 87.4365 31.1659 87.6617 31.1298C87.8857 31.0926 88.0976 31.2452 88.1338 31.4711C88.2229 32.0203 88.8298 32.6597 89.4054 32.8111C89.7582 32.9036 89.887 32.7462 89.928 32.6945C90.0195 32.5419 90.2627 31.5144 89.8979 30.857C89.7148 30.5277 89.191 30.3871 88.2506 30.4172C88.0085 30.428 87.8327 30.2453 87.8255 30.0182C87.8183 29.791 87.9977 29.6012 88.2253 29.5939C89.1031 29.5663 90.1652 29.6408 90.6192 30.458C91.1599 31.4315 90.848 32.864 90.5722 33.2089C90.3326 33.5057 89.993 33.6619 89.6065 33.6619Z" fill="#332E3C" stroke="#222222"/>
<path fill-rule="evenodd" clip-rule="evenodd" d="M87.0209 32.2846C86.4164 32.2846 85.677 31.9853 85.264 31.5719C84.8835 31.1934 84.4379 30.3149 84.5896 29.6515C84.6667 29.3186 84.8834 29.0734 85.2014 28.9629C86.1129 28.6468 87.647 28.5302 88.1383 29.5109C88.4454 30.1226 88.3948 31.0756 88.0215 31.6777C87.7795 32.0682 87.4243 32.2846 87.0209 32.2846ZM86.5464 29.5589C86.1852 29.5589 85.7818 29.6334 85.4723 29.7404C85.4289 29.756 85.4073 29.7729 85.394 29.8353C85.3242 30.1382 85.5891 30.7331 85.8468 30.9902C86.1069 31.251 86.6331 31.4613 87.0209 31.4613C87.0618 31.4613 87.1858 31.4613 87.3207 31.245C87.5459 30.8809 87.5832 30.2415 87.4014 29.8786C87.2858 29.6467 86.9414 29.5589 86.5464 29.5589ZM85.3374 29.3522H85.3422H85.3374Z" fill="#332E3C" stroke="#222222"/>
<path fill-rule="evenodd" clip-rule="evenodd" d="M84.0287 31.114C83.122 31.114 81.9069 30.3341 81.5373 29.5709C81.2543 28.9869 81.4217 28.4316 81.9864 28.0831C82.721 27.6301 84.0179 27.9401 84.7211 28.5014C85.1558 28.8487 85.2654 29.5205 85.1811 30.0312C85.098 30.5372 84.8307 30.9073 84.449 31.0455C84.3213 31.0924 84.1792 31.114 84.0287 31.114ZM82.4187 28.7838C82.1923 28.9232 82.1948 29.0373 82.279 29.2116C82.5753 29.8233 83.7554 30.423 84.1672 30.2728C84.2551 30.2403 84.3358 30.0901 84.3683 29.8978C84.4213 29.5721 84.3261 29.2392 84.2069 29.1443C83.7048 28.7429 82.786 28.5578 82.4187 28.7838Z" fill="#332E3C" stroke="#222222"/>
<path fill-rule="evenodd" clip-rule="evenodd" d="M80.3381 30.0131C79.7637 30.0131 79.3218 29.6814 78.9461 29.4014C78.6679 29.1923 78.3572 28.7909 78.3945 28.3462C78.4198 28.0626 78.5812 27.8307 78.8497 27.6937C79.4398 27.3932 80.3838 27.3007 81.063 27.809C81.4543 28.1023 81.6928 28.6166 81.6422 29.0589C81.6025 29.417 81.3893 29.6994 81.0449 29.8521C80.7884 29.9662 80.5536 30.0131 80.3381 30.0131ZM79.2254 28.4255C79.2158 28.4316 79.2086 28.4352 79.205 28.4388C79.211 28.4652 79.2844 28.6262 79.441 28.7428C79.9624 29.1334 80.2333 29.3113 80.7102 29.1009C80.8053 29.0577 80.8185 29.0108 80.8234 28.9663C80.8414 28.8125 80.7234 28.5842 80.5681 28.4664C80.1936 28.1864 79.5963 28.2369 79.2254 28.4255Z" fill="#332E3C" stroke="#222222"/>
<path d="M75.1878 62.3168C75.1806 62.3168 75.1734 62.3168 75.1661 62.3168C70.7709 62.0836 66.7947 59.7198 64.7898 56.1493C64.679 55.951 64.75 55.701 64.9487 55.5893C65.1462 55.4787 65.3979 55.5496 65.5099 55.7479C67.3775 59.0732 71.0948 61.2761 75.2095 61.4948C75.4371 61.5068 75.6117 61.7003 75.5996 61.9274C75.5876 62.1473 75.4058 62.3168 75.1878 62.3168Z" fill="#332E3C" stroke="#222222"/>
<path d="M74.5306 67.2344C74.5005 67.2344 74.4692 67.2308 74.4379 67.2236C74.2151 67.1719 74.0779 66.9508 74.1296 66.7297C74.4186 65.487 74.8293 64.4739 75.1592 63.6591C75.8456 61.967 76.019 61.4046 75.1195 60.8362C74.9268 60.7148 74.869 60.4612 74.9906 60.2689C75.1122 60.0766 75.3675 60.0202 75.5602 60.1415C77.0847 61.103 76.5729 62.3672 75.9238 63.968C75.6047 64.7551 75.2074 65.7358 74.9328 66.9159C74.8883 67.1058 74.7185 67.2344 74.5306 67.2344Z" fill="#332E3C" stroke="#222222"/>
<path d="M67.6857 90.6764C62.1875 90.6764 57.6465 90.1548 56.3292 89.0864C54.3603 87.4905 53.9774 83.8912 55.1575 78.0854C55.2032 77.8619 55.4224 77.7177 55.644 77.7633C55.8667 77.809 56.0112 78.0253 55.9655 78.2488C54.8673 83.6508 55.1647 87.0819 56.8494 88.4483C59.1903 90.3471 76.0222 90.3831 86.2998 87.9652C86.5214 87.9159 86.743 88.0505 86.796 88.2716C86.8478 88.4927 86.7105 88.7139 86.4889 88.7667C81.1243 90.0286 73.8114 90.6764 67.6857 90.6764Z" fill="#332E3C" stroke="#222222"/>
<path fill-rule="evenodd" clip-rule="evenodd" d="M15.2862 23.4947C15.1995 23.4947 15.114 23.4839 15.0285 23.4623C14.2663 23.2664 13.8665 22.2701 13.8436 20.5011C13.8219 18.9484 14.0989 16.9691 14.6239 14.9297C15.1477 12.8891 15.8594 11.0216 16.6264 9.67076C17.5007 8.13009 18.3303 7.44989 19.0938 7.64457C20.6941 8.05438 20.5087 12.2474 19.4984 16.1772C18.9746 18.2178 18.2629 20.0853 17.4971 21.4361C16.7192 22.8037 15.9774 23.4947 15.2862 23.4947ZM18.8457 8.43654C18.6254 8.43654 18.0871 8.76823 17.3441 10.077C16.612 11.3653 15.9292 13.1619 15.4223 15.134C14.9165 17.1061 14.648 19.0073 14.6672 20.4891C14.6889 22.1019 15.0478 22.6174 15.2332 22.6655C15.4223 22.7124 15.9834 22.4324 16.7794 21.0299C17.5115 19.7404 18.1931 17.945 18.7 15.9729C19.8825 11.3713 19.4454 8.58316 18.8891 8.44135C18.877 8.43774 18.8626 8.43654 18.8457 8.43654ZM15.0237 15.0319H15.0285H15.0237Z" fill="#332E3C" stroke="#222222"/>
<path d="M19.4984 24.531C19.4117 24.531 19.3262 24.5189 19.2407 24.4973C18.7157 24.3639 15.0767 23.489 15.0767 23.489L15.2693 22.6898C17.7018 23.2739 19.095 23.6104 19.4454 23.7005C19.6284 23.7486 20.1944 23.4674 20.9916 22.0649C21.7237 20.7766 22.4053 18.98 22.9122 17.0079C24.0947 12.4063 23.6576 9.61938 23.1013 9.47757C22.492 9.32134 18.8819 8.43443 18.8819 8.43443L19.0781 7.63525C21.4901 8.22773 22.899 8.57624 23.306 8.67959C24.9063 9.0894 24.7209 13.2824 23.7106 17.2134C23.1868 19.2528 22.4751 21.1203 21.7081 22.4711C20.9314 23.8399 20.1896 24.531 19.4984 24.531Z" fill="#332E3C" stroke="#222222"/>
<path d="M16.365 22.3052C16.2265 22.3052 16.0904 22.2355 16.0133 22.1081C15.1403 20.684 15.4859 17.6207 16.1013 15.2292C16.7599 12.6634 17.9737 9.79598 19.1984 9.17226C19.4019 9.06891 19.65 9.14943 19.7535 9.35133C19.8571 9.55323 19.7764 9.80199 19.5741 9.90534C18.8745 10.2611 17.7004 12.3197 16.8996 15.4335C16.1916 18.1916 16.1169 20.7009 16.7166 21.6791C16.8358 21.8726 16.7744 22.1262 16.5805 22.2451C16.5131 22.286 16.4384 22.3052 16.365 22.3052Z" fill="#222222" stroke="#222222"/>
<path d="M46.9261 28.8979L45.51 28.6047L20.9894 23.5104C20.7666 23.4635 20.6233 23.246 20.6703 23.0236C20.7161 22.8001 20.934 22.6571 21.158 22.704L47.0947 28.0927L47.0261 28.4989L46.9261 28.8979Z" fill="#332E3C" stroke="#222222"/>
<path d="M86.8862 37.1877C86.8585 37.1877 86.8296 37.1841 86.8019 37.1793L61.3324 31.8903C61.1096 31.8435 60.9663 31.6259 61.0132 31.4036C61.059 31.1801 61.277 31.0359 61.5009 31.084L86.9692 36.3729C87.192 36.4198 87.3353 36.6373 87.2895 36.8597C87.2486 37.0544 87.0776 37.1877 86.8862 37.1877Z" fill="#332E3C" stroke="#222222"/>
<path d="M92.3722 38.3271C92.3445 38.3271 92.3156 38.3235 92.2879 38.3175L89.9241 37.8272C89.7014 37.7803 89.5569 37.5628 89.6038 37.3405C89.6496 37.1181 89.8688 36.9739 90.0915 37.0208L92.3325 37.4871C92.471 37.3982 92.896 37.046 93.2043 35.8731C93.5294 34.6281 93.3019 34.199 93.2284 34.0981L90.3324 33.1403C90.1168 33.0694 89.9988 32.8362 90.0711 32.6211C90.1421 32.4048 90.3757 32.2882 90.5925 32.3591L93.5692 33.3446C93.5945 33.353 93.6186 33.3638 93.6402 33.3758C93.7968 33.4623 94.5446 34.0019 94.0015 36.081C93.4969 38.0062 92.6275 38.2827 92.4577 38.3175C92.43 38.3235 92.4011 38.3271 92.3722 38.3271Z" fill="#332E3C" stroke="#222222"/>
<path d="M85.1244 31.3963C85.0835 31.3963 85.0414 31.3903 85.0016 31.3771L84.2899 31.1547C84.0732 31.0874 83.9516 30.8555 84.0202 30.6392C84.0876 30.4228 84.3201 30.3015 84.5368 30.37L85.2473 30.5923C85.4652 30.6596 85.5856 30.8903 85.5182 31.1078C85.4628 31.2833 85.3003 31.3963 85.1244 31.3963Z" fill="#332E3C"/>
<path d="M82.3178 30.4676C82.2745 30.4676 82.2311 30.4603 82.1877 30.4471L80.7319 29.9652C80.5151 29.8943 80.3983 29.6612 80.4706 29.4448C80.5416 29.2297 80.774 29.112 80.992 29.1841L82.4466 29.666C82.6634 29.7369 82.7802 29.97 82.7092 30.1851C82.6514 30.3582 82.49 30.4676 82.3178 30.4676Z" fill="#332E3C"/>
<path d="M78.8257 29.3138C78.7836 29.3138 78.739 29.3066 78.6969 29.2922L65.0235 24.7699C64.8079 24.699 64.6899 24.4659 64.7622 24.2495C64.8332 24.0344 65.0656 23.9166 65.2824 23.9887L78.9558 28.511C79.1725 28.5831 79.2893 28.8151 79.2171 29.0314C79.1605 29.2044 78.9991 29.3138 78.8257 29.3138Z" fill="#332E3C" stroke="#222222"/>
<path d="M51.2976 20.2079C51.2542 20.2079 51.2109 20.2019 51.1675 20.1875L50.7497 20.0493L24.011 11.2559C23.7942 11.1838 23.6774 10.9519 23.7485 10.7355C23.8195 10.5204 24.0507 10.4038 24.2687 10.4735L51.4264 19.4063C51.6432 19.4772 51.76 19.7104 51.6889 19.9267C51.6311 20.0985 51.4698 20.2079 51.2976 20.2079Z" fill="#332E3C" stroke="#222222"/>
<path d="M94.2737 37.9211C94.252 37.9211 94.2304 37.9199 94.2087 37.9163L93.084 37.7384C92.8588 37.7024 92.7059 37.4921 92.7408 37.2673C92.7769 37.0426 92.9865 36.89 93.2128 36.9248L94.2099 37.0835C94.2785 37.0186 94.4688 36.8059 94.6193 36.2326C94.7554 35.7111 94.7193 35.4346 94.6795 35.3337L93.7631 35.0176C93.5476 34.9431 93.4332 34.7088 93.5079 34.4949C93.5825 34.2797 93.8161 34.1656 94.0317 34.2401L95.054 34.5922C95.0769 34.6006 95.0998 34.6102 95.1215 34.6222C95.2792 34.7112 95.7669 35.103 95.4165 36.4405C95.0877 37.6988 94.4772 37.8875 94.358 37.9127C94.3303 37.9187 94.3014 37.9211 94.2737 37.9211Z" fill="#332E3C" stroke="#222222"/>
<path d="M34.4829 26.1207C34.4179 26.1207 34.3504 26.1051 34.289 26.0726C34.0879 25.9657 34.0121 25.7157 34.1192 25.515C35.8966 22.1885 36.8371 18.6565 36.8371 15.3011C36.8371 15.074 37.0213 14.8901 37.2489 14.8901C37.4765 14.8901 37.6619 15.074 37.6619 15.3011C37.6619 18.7911 36.6877 22.4577 34.8466 25.9032C34.7731 26.0414 34.6298 26.1207 34.4829 26.1207Z" fill="#332E3C" stroke="#222222"/>
<path d="M64.4197 56.17C64.351 56.17 64.2824 56.1532 64.2186 56.1184C64.0187 56.009 63.9488 55.7542 64.0584 55.5559C64.2619 55.1858 64.7954 54.9695 65.6431 54.9154C65.8611 54.901 66.0658 55.0728 66.0802 55.2988C66.0959 55.5259 65.9237 55.7218 65.6961 55.7362C65.1699 55.7699 64.8351 55.89 64.7749 55.9609C64.7002 56.0955 64.563 56.17 64.4197 56.17Z" fill="#332E3C" stroke="#222222"/>
<path d="M1.60109 24.3253C1.39999 24.3253 1.22418 24.1799 1.19408 23.9756C1.16036 23.7509 1.3145 23.5417 1.53968 23.5069C3.80353 23.1668 8.32641 22.7522 8.37096 22.7474C8.59975 22.7245 8.79844 22.8928 8.82012 23.1199C8.84059 23.3459 8.67321 23.5466 8.44683 23.567C8.40107 23.5706 3.90227 23.984 1.6625 24.3217C1.64203 24.3241 1.62156 24.3253 1.60109 24.3253Z" fill="#332E3C" stroke="#222222"/>
<path d="M8.30311 17.6866C8.30311 17.6866 4.53284 17.421 1.38392 17.2071C1.15633 17.1915 0.98534 16.9956 1.00099 16.7684C1.01665 16.5413 1.22377 16.3694 1.43931 16.3863C3.53939 16.5293 5.84659 16.6891 8.36091 16.8658L8.30311 17.6866Z" fill="#332E3C" stroke="#222222"/>
<path d="M9.19144 11.5204C9.1493 11.5204 9.10595 11.5132 9.0626 11.5C9.03008 11.4892 5.6897 10.3907 2.56969 9.30073C2.35534 9.22622 2.24215 8.99188 2.31681 8.77676C2.39267 8.56285 2.62749 8.44868 2.84183 8.52439C5.95462 9.61079 9.28778 10.7068 9.32029 10.7176C9.53704 10.7885 9.65505 11.0217 9.584 11.238C9.5262 11.411 9.36484 11.5204 9.19144 11.5204Z" fill="#332E3C" stroke="#222222"/>
<path d="M11.8073 5.89728C11.723 5.89728 11.6375 5.87204 11.5641 5.81796L5.97792 1.74396C5.79368 1.61056 5.75394 1.35338 5.88761 1.16951C6.02248 0.985638 6.28017 0.944778 6.46441 1.07938L12.0506 5.15338C12.2348 5.28798 12.2745 5.54516 12.1409 5.72903C12.059 5.83959 11.9338 5.89728 11.8073 5.89728Z" fill="#332E3C" stroke="#222222"/>
</svg>
